<?xml version="1.0" encoding="UTF-8"?>
<svg version="1.1" xmlns="http://www.w3.org/2000/svg" width="1000" height="692">
<path d="M0 0 C0.69351563 0.07347656 1.38703125 0.14695312 2.1015625 0.22265625 C7.54030095 1.93277504 11.58096565 5.90484469 15.4921875 9.89453125 C16.18346237 10.59360847 16.18346237 10.59360847 16.88870239 11.30680847 C18.34738847 12.78312091 19.79916118 14.26597839 21.25 15.75 C22.69451723 17.22245525 24.1405992 18.69328339 25.58987427 20.16105652 C26.91083116 21.49959225 28.22682252 22.84302311 29.54248047 24.18676758 C31.69587929 26.27798845 33.86128897 28.2437972 36.13330078 30.19799805 C40.85276024 34.29019987 45.232425 38.68734377 49.625 43.125 C50.48254883 43.98633545 51.34009766 44.8476709 52.22363281 45.73510742 C55.85994939 49.38763983 59.49024371 53.04613635 63.12109375 56.70410156 C65.78697597 59.38815156 68.4559181 62.06913241 71.125 64.75 C71.93356445 65.56686279 72.74212891 66.38372559 73.57519531 67.2253418 C77.08352705 70.74863833 80.6052165 74.19378708 84.375 77.4375 C89.02399098 81.43772762 93.312395 85.76813451 97.625 90.125 C98.48254883 90.98633545 99.34009766 91.8476709 100.22363281 92.73510742 C103.85994939 96.38763983 107.49024371 100.04613635 111.12109375 103.70410156 C113.78697597 106.38815156 116.4559181 109.06913241 119.125 111.75 C119.93356445 112.56686279 120.74212891 113.38372559 121.57519531 114.2253418 C125.7564649 118.4244466 130.02268307 122.42712349 134.51455688 126.29077148 C137.46149524 128.89918632 140.16727272 131.72082735 142.88671875 134.5625 C144.06761502 135.7754647 145.24927724 136.98768411 146.43164062 138.19921875 C148.26250693 140.07978176 150.08820688 141.96439786 151.90161133 143.86181641 C153.67470416 145.71333951 155.46609556 147.54535488 157.26171875 149.375 C157.80140793 149.94879395 158.34109711 150.52258789 158.8971405 151.11376953 C160.59706529 152.89445684 160.59706529 152.89445684 163.375 154.9375 C166.78973688 154.88953339 167.93662924 154.30425184 170.55078125 152.1171875 C171.25589844 151.35664063 171.96101562 150.59609375 172.6875 149.8125 C175.33057625 146.98865883 178.0174904 144.35498581 180.95776367 141.84814453 C185.73000076 137.69182718 190.17473649 133.2459368 194.625 128.75 C195.48254883 127.88866455 196.34009766 127.0273291 197.22363281 126.13989258 C199.94320889 123.4081888 202.659512 120.67326725 205.375 117.9375 C208.95538026 114.33038149 212.53915181 110.72668198 216.125 107.125 C216.93356445 106.30813721 217.74212891 105.49127441 218.57519531 104.6496582 C222.70316093 100.50408475 226.91316893 96.55578431 231.34667969 92.7409668 C235.27310564 89.24981267 238.93018778 85.48273227 242.625 81.75 C243.48254883 80.88866455 244.34009766 80.0273291 245.22363281 79.13989258 C247.94320889 76.4081888 250.659512 73.67326725 253.375 70.9375 C256.95538026 67.33038149 260.53915181 63.72668198 264.125 60.125 C264.93356445 59.30813721 265.74212891 58.49127441 266.57519531 57.6496582 C270.08636768 54.12350893 273.6110677 50.67632671 277.38427734 47.43041992 C281.9844632 43.47235729 286.21827416 39.18297863 290.4765625 34.86328125 C292.20038703 33.12682029 293.92434945 31.3904962 295.6484375 29.65429688 C298.33397826 26.94388999 301.01788016 24.23189828 303.69921875 21.51733398 C306.30808797 18.87823425 308.92316518 16.24541222 311.5390625 13.61328125 C312.33607574 12.80280838 313.13308899 11.99233551 313.95425415 11.15730286 C320.1310406 4.95285719 324.8812383 0.35462993 333.93359375 -0.14453125 C345.62834988 0.24841256 354.97488196 13.39336292 362.6015625 21.1015625 C363.43408539 21.93787201 364.26660828 22.77418152 365.12435913 23.63583374 C367.75205099 26.27560567 370.37644232 28.91861967 373 31.5625 C376.468391 35.05764935 379.94019451 38.54935768 383.4140625 42.0390625 C384.19447906 42.8277774 384.97489563 43.61649231 385.77896118 44.42910767 C389.21348297 47.87879801 392.66620633 51.2437925 396.35693359 54.41943359 C401.01109284 58.42670152 405.30639416 62.76207208 409.625 67.125 C410.48254883 67.98633545 411.34009766 68.8476709 412.22363281 69.73510742 C415.85994939 73.38763983 419.49024371 77.04613635 423.12109375 80.70410156 C425.78697597 83.38815156 428.4559181 86.06913241 431.125 88.75 C431.93356445 89.56686279 432.74212891 90.38372559 433.57519531 91.2253418 C437.70749485 95.37526767 441.9218511 99.32863679 446.36010742 103.14746094 C450.20640374 106.5645268 453.78869219 110.25053269 457.40625 113.90625 C458.65927917 115.16495911 458.65927917 115.16495911 459.93762207 116.44909668 C463.47836129 120.0060452 467.01307324 123.5689612 470.54833984 127.13134766 C473.1447206 129.74590164 475.74416566 132.35738184 478.34375 134.96875 C479.13044067 135.76373901 479.91713135 136.55872803 480.72766113 137.37780762 C484.92291568 141.59143194 489.19574002 145.6280243 493.72888184 149.47741699 C495.375 150.9375 495.375 150.9375 497.5625 153.4375 C499.26062619 155.16335485 499.26062619 155.16335485 501.5378418 154.95947266 C505.86812015 153.39966324 508.42703636 150.35653485 511.58203125 147.0859375 C512.60836922 146.04755234 512.60836922 146.04755234 513.65544128 144.9881897 C515.84244182 142.77221474 518.01541165 140.54308524 520.1875 138.3125 C522.35133329 136.10590702 524.51804085 133.90221732 526.68742371 131.70108032 C528.03473622 130.33239099 529.37850038 128.96019577 530.7179718 127.58383179 C533.80334423 124.43424043 536.92907962 121.40965648 540.2722168 118.53369141 C544.95325253 114.49801899 549.27898993 110.1406134 553.625 105.75 C554.48254883 104.88866455 555.34009766 104.0273291 556.22363281 103.13989258 C558.94320889 100.4081888 561.659512 97.67326725 564.375 94.9375 C567.95538026 91.33038149 571.53915181 87.72668198 575.125 84.125 C575.93356445 83.30813721 576.74212891 82.49127441 577.57519531 81.6496582 C581.70316093 77.50408475 585.91316893 73.55578431 590.34667969 69.7409668 C594.27310564 66.24981267 597.93018778 62.48273227 601.625 58.75 C602.91132324 57.45799683 602.91132324 57.45799683 604.22363281 56.13989258 C606.94320889 53.4081888 609.659512 50.67326725 612.375 47.9375 C615.95538026 44.33038149 619.53915181 40.72668198 623.125 37.125 C623.93356445 36.30813721 624.74212891 35.49127441 625.57519531 34.6496582 C629.79786122 30.4089805 634.10496726 26.35642699 638.64208984 22.45446777 C640.81794281 20.54975343 642.824753 18.52102108 644.8125 16.421875 C645.93785156 15.25785156 645.93785156 15.25785156 647.0859375 14.0703125 C648.61980371 12.47362583 650.14580169 10.8693453 651.6640625 9.2578125 C656.90496709 3.87282806 661.16677193 0.37819622 668.9140625 -0.27734375 C669.60242188 -0.18582031 670.29078125 -0.09429687 671 0 C671.69351563 0.07347656 672.38703125 0.14695312 673.1015625 0.22265625 C678.64485319 1.96564971 682.72614535 6.0523489 686.7109375 10.11328125 C687.19398346 10.60152878 687.67702942 11.08977631 688.17471313 11.59281921 C689.70471831 13.14046369 691.22782311 14.69465863 692.75 16.25 C701.31867518 24.97651575 701.31867518 24.97651575 710.38232422 33.18286133 C714.50916581 36.81672686 718.36175637 40.7397752 722.25 44.625 C723.10335937 45.46611328 723.95671875 46.30722656 724.8359375 47.17382812 C725.650625 47.98658203 726.4653125 48.79933594 727.3046875 49.63671875 C728.40659424 50.73246216 728.40659424 50.73246216 729.53076172 51.8503418 C733.69336049 56.56123098 733.95187666 60.78715327 733.7890625 66.9296875 C733.09684098 71.9580891 730.87522913 74.3944359 727.375 77.9375 C726.87033203 78.46134277 726.36566406 78.98518555 725.84570312 79.52490234 C720.65341718 84.90899954 715.41808605 90.22101821 709.72607422 95.07983398 C704.97803578 99.21961543 700.55480452 103.64973216 696.125 108.125 C695.26745117 108.98633545 694.40990234 109.8476709 693.52636719 110.73510742 C690.80679111 113.4668112 688.090488 116.20173275 685.375 118.9375 C681.79461974 122.54461851 678.21084819 126.14831802 674.625 129.75 C673.81643555 130.56686279 673.00787109 131.38372559 672.17480469 132.2253418 C668.04683907 136.37091525 663.83683107 140.31921569 659.40332031 144.1340332 C655.47689436 147.62518733 651.81981222 151.39226773 648.125 155.125 C647.26745117 155.98633545 646.40990234 156.8476709 645.52636719 157.73510742 C642.80679111 160.4668112 640.090488 163.20173275 637.375 165.9375 C633.79461974 169.54461851 630.21084819 173.14831802 626.625 176.75 C625.81643555 177.56686279 625.00787109 178.38372559 624.17480469 179.2253418 C620.04683907 183.37091525 615.83683107 187.31921569 611.40332031 191.1340332 C607.47689436 194.62518733 603.81981222 198.39226773 600.125 202.125 C599.26745117 202.98633545 598.40990234 203.8476709 597.52636719 204.73510742 C594.80679111 207.4668112 592.090488 210.20173275 589.375 212.9375 C585.79461974 216.54461851 582.21084819 220.14831802 578.625 223.75 C577.81643555 224.56686279 577.00787109 225.38372559 576.17480469 226.2253418 C572.04250515 230.37526767 567.8281489 234.32863679 563.38989258 238.14746094 C559.54359626 241.5645268 555.96130781 245.25053269 552.34375 248.90625 C551.50839722 249.7453894 550.67304443 250.58452881 549.81237793 251.44909668 C547.16412914 254.109469 544.51915594 256.77306013 541.875 259.4375 C538.38837399 262.95087273 534.89835074 266.46081971 531.40625 269.96875 C530.61955933 270.76373901 529.83286865 271.55872803 529.02233887 272.37780762 C524.82370443 276.59482664 520.54626068 280.6368396 516.01501465 284.49572754 C514.22813494 286.01511744 514.22813494 286.01511744 512.25 288.25 C509.11746269 291.06928358 506.17620428 291.91109798 501.9765625 291.97265625 C492.68374045 291.40057561 487.77052788 286.63363887 481.5078125 280.23046875 C480.86939423 279.58684891 480.23097595 278.94322906 479.57321167 278.28010559 C477.54395169 276.23314074 475.52152713 274.17959965 473.5 272.125 C471.48478596 270.08196487 469.468052 268.04049125 467.44821167 266.00202942 C466.1964068 264.7381855 464.94727876 263.47168192 463.70144653 262.20195007 C460.73120857 259.19830421 457.71021652 256.3229403 454.50732422 253.56762695 C449.81948996 249.51753693 445.48129518 245.15100407 441.125 240.75 C439.83867676 239.45799683 439.83867676 239.45799683 438.52636719 238.13989258 C434.89005061 234.48736017 431.25975629 230.82886365 427.62890625 227.17089844 C424.96302403 224.48684844 422.2940819 221.80586759 419.625 219.125 C418.81643555 218.30813721 418.00787109 217.49127441 417.17480469 216.6496582 C413.66647295 213.12636167 410.1447835 209.68121292 406.375 206.4375 C401.72600902 202.43727238 397.437605 198.10686549 393.125 193.75 C391.83867676 192.45799683 391.83867676 192.45799683 390.52636719 191.13989258 C386.89005061 187.48736017 383.25975629 183.82886365 379.62890625 180.17089844 C376.96302403 177.48684844 374.2940819 174.80586759 371.625 172.125 C370.81643555 171.30813721 370.00787109 170.49127441 369.17480469 169.6496582 C364.95882834 165.4156986 360.65786582 161.37248563 356.12802124 157.47680664 C353.82622267 155.4556253 351.71448704 153.29003595 349.61328125 151.0625 C348.39995117 149.80373047 348.39995117 149.80373047 347.16210938 148.51953125 C345.49112353 146.77600853 343.82985719 145.02312596 342.17773438 143.26171875 C341.37271484 142.43285156 340.56769531 141.60398437 339.73828125 140.75 C339.01938721 139.99332031 338.30049316 139.23664063 337.55981445 138.45703125 C335.48736953 136.72028198 335.48736953 136.72028198 332.95703125 136.86669922 C329.48544418 138.30640997 327.24811154 140.58669107 324.69921875 143.2578125 C323.90593925 144.06313919 323.90593925 144.06313919 323.09663391 144.88473511 C321.40885522 146.60143472 319.73524496 148.33115954 318.0625 150.0625 C316.39803672 151.76984059 314.73066201 153.47422765 313.0605011 155.17599487 C312.02471203 156.23302018 310.99248681 157.29355599 309.96476746 158.35842896 C307.26633319 161.12929894 304.49202427 163.73592949 301.55981445 166.25927734 C296.93367825 170.26051768 292.64421885 174.56041802 288.34375 178.90625 C287.50839722 179.7453894 286.67304443 180.58452881 285.81237793 181.44909668 C283.16412914 184.109469 280.51915594 186.77306013 277.875 189.4375 C274.38837399 192.95087273 270.89835074 196.46081971 267.40625 199.96875 C266.61955933 200.76373901 265.83286865 201.55872803 265.02233887 202.37780762 C261.56928824 205.84597813 258.09926031 209.23111377 254.38867188 212.42382812 C249.73577035 216.42938442 245.44214626 220.76354664 241.125 225.125 C240.26745117 225.98633545 239.40990234 226.8476709 238.52636719 227.73510742 C235.80679111 230.4668112 233.090488 233.20173275 230.375 235.9375 C226.79461974 239.54461851 223.21084819 243.14831802 219.625 246.75 C218.81643555 247.56686279 218.00787109 248.38372559 217.17480469 249.2253418 C212.98739335 253.43061454 208.71613462 257.44361759 204.21755981 261.31311035 C201.38751902 263.80805729 198.77242325 266.49124889 196.15234375 269.203125 C195.02583379 270.35199721 193.89886728 271.5004219 192.77148438 272.6484375 C191.0335507 274.42353701 189.29895961 276.20150193 187.57202148 277.98730469 C185.87884279 279.73519454 184.17302918 281.46991449 182.46484375 283.203125 C181.95735092 283.73440002 181.44985809 284.26567505 180.92698669 284.81304932 C176.52175463 289.24974637 172.25976541 291.57034804 165.9375 292.375 C158.36001449 291.4444316 153.71040994 287.73587907 148.625 282.23046875 C146.74680819 280.31640869 144.84846921 278.60603445 142.8125 276.8684082 C138.03433096 272.70439702 133.58197499 268.25271716 129.125 263.75 C127.83867676 262.45799683 127.83867676 262.45799683 126.52636719 261.13989258 C122.89005061 257.48736017 119.25975629 253.82886365 115.62890625 250.17089844 C112.96302403 247.48684844 110.2940819 244.80586759 107.625 242.125 C106.81643555 241.30813721 106.00787109 240.49127441 105.17480469 239.6496582 C101.66647295 236.12636167 98.1447835 232.68121292 94.375 229.4375 C89.72600902 225.43727238 85.437605 221.10686549 81.125 216.75 C79.83867676 215.45799683 79.83867676 215.45799683 78.52636719 214.13989258 C74.89005061 210.48736017 71.25975629 206.82886365 67.62890625 203.17089844 C64.96302403 200.48684844 62.2940819 197.80586759 59.625 195.125 C58.81643555 194.30813721 58.00787109 193.49127441 57.17480469 192.6496582 C53.04250515 188.49973233 48.8281489 184.54636321 44.38989258 180.72753906 C40.54359626 177.3104732 36.96130781 173.62446731 33.34375 169.96875 C32.50839722 169.1296106 31.67304443 168.29047119 30.81237793 167.42590332 C27.27163871 163.8689548 23.73692676 160.3060388 20.20166016 156.74365234 C17.6052794 154.12909836 15.00583434 151.51761816 12.40625 148.90625 C11.61955933 148.11126099 10.83286865 147.31627197 10.02233887 146.49719238 C6.56928824 143.02902187 3.09926031 139.64388623 -0.61132812 136.45117188 C-5.26422965 132.44561558 -9.55785374 128.11145336 -13.875 123.75 C-14.73254883 122.88866455 -15.59009766 122.0273291 -16.47363281 121.13989258 C-20.10994939 117.48736017 -23.74024371 113.82886365 -27.37109375 110.17089844 C-30.03697597 107.48684844 -32.7059181 104.80586759 -35.375 102.125 C-36.18356445 101.30813721 -36.99212891 100.49127441 -37.82519531 99.6496582 C-42.0424771 95.4143876 -46.32966428 91.33831261 -50.87442017 87.4551239 C-53.70047926 85.00513862 -56.35458713 82.39197726 -59 79.75 C-59.51949219 79.24275391 -60.03898437 78.73550781 -60.57421875 78.21289062 C-65.27462393 73.53070407 -66.91557668 70.69817273 -67 64.0625 C-67.02835937 63.05445313 -67.05671875 62.04640625 -67.0859375 61.0078125 C-66.15634265 54.81576544 -61.55798454 50.62112467 -57.265625 46.34765625 C-56.7575531 45.84004257 -56.2494812 45.33242889 -55.72601318 44.80943298 C-54.65597607 43.7423986 -53.58352806 42.67777691 -52.50878906 41.61547852 C-50.88813505 40.01298784 -49.27553466 38.40273388 -47.6640625 36.79101562 C-42.76111965 31.90556572 -37.80259871 27.15040608 -32.53808594 22.65209961 C-30.31977721 20.66394466 -28.25727646 18.56410702 -26.1875 16.421875 C-25.43726563 15.64585937 -24.68703125 14.86984375 -23.9140625 14.0703125 C-22.38019629 12.47362583 -20.85419831 10.8693453 -19.3359375 9.2578125 C-13.88869987 3.66082263 -8.38144898 -1.11438741 0 0 Z " fill="#6887C7" transform="translate(166.625,299.0625)"/>
<path d="M0 0 C1.72570221 0.00273422 1.72570221 0.00273422 3.48626709 0.00552368 C20.00314189 0.04961886 36.13495873 0.44239397 52.4375 3.3125 C53.45634277 3.47878906 54.47518555 3.64507812 55.52490234 3.81640625 C127.90677722 15.72385863 189.89734401 50.01457406 242.4375 100.3125 C243.06205078 100.90836914 243.68660156 101.50423828 244.33007812 102.11816406 C246.14697749 103.86022763 247.95076284 105.61471722 249.75 107.375 C250.295354 107.89892334 250.84070801 108.42284668 251.40258789 108.96264648 C255.85137649 113.37292979 257.71379108 117.00172532 257.8125 123.25 C257.84085938 124.06339844 257.86921875 124.87679687 257.8984375 125.71484375 C256.92208206 131.21718584 252.72798225 135.27191633 248.88769531 139.10522461 C247.54544891 140.45208595 247.54544891 140.45208595 246.17608643 141.82615662 C245.20611014 142.78923115 244.23595173 143.75212229 243.265625 144.71484375 C242.25880985 145.72046421 241.25236693 146.72645747 240.24627686 147.73280334 C238.14122381 149.83629743 236.03287273 151.93640773 233.921875 154.03393555 C231.23620316 156.70267364 228.5571046 159.37789056 225.8802681 162.05548763 C223.80258287 164.1328988 221.72228494 166.20767723 219.64113617 168.28161812 C218.65352958 169.26607496 217.66649898 170.25111003 216.68009186 171.23676872 C211.1088416 176.79916988 205.5175931 182.30242294 199.4375 187.3125 C198.770672 187.86739609 198.10384399 188.42229218 197.41680908 188.9940033 C195.4375 190.3125 195.4375 190.3125 192.1875 190.4375 C183.43930766 187.8130423 176.86706808 178.79760165 170.625 172.4375 C163.83935052 165.58869364 157.07848233 159.19494182 149.4375 153.3125 C147.72890987 151.85446754 146.02058804 150.39612063 144.3125 148.9375 C97.48372028 110.92200186 33.90026604 95.50852338 -25.4375 101.5625 C-70.18237933 106.70094421 -114.05910296 124.03183939 -148.5625 153.3125 C-149.96435547 154.43978516 -149.96435547 154.43978516 -151.39453125 155.58984375 C-161.31805285 163.69353941 -170.22641529 172.82759196 -179.20727539 181.94311523 C-179.74330887 182.48587097 -180.27934235 183.02862671 -180.83161926 183.58782959 C-181.85082812 184.62085454 -182.86768724 185.65620447 -183.88188171 186.69415283 C-186.97537213 189.83136569 -188.39208197 191.20472758 -192.85751343 191.61590576 C-197.21511411 191.25905665 -198.59754341 190.30846642 -201.84228516 187.45800781 C-202.78759094 186.63224243 -203.73289673 185.80647705 -204.70684814 184.95568848 C-209.27156743 180.73058891 -213.71330044 176.40772837 -218.0859375 171.984375 C-219.04428356 171.02228191 -220.00308465 170.0606419 -220.96231079 169.09942627 C-223.45373632 166.60046951 -225.93909833 164.09557105 -228.4230957 161.5892334 C-230.95155242 159.04019196 -233.48577965 156.49690146 -236.01953125 153.953125 C-240.51421509 149.43927864 -245.00505456 144.92165447 -249.48822021 140.3963623 C-251.1761787 138.70060598 -252.87837709 137.02200983 -254.58837891 135.34863281 C-257.73629367 132.10183475 -258.43462139 129.44209438 -258.9375 125 C-257.91402674 114.93584625 -250.67816931 108.91181659 -243.8125 102.25 C-242.83766923 101.28668937 -241.86370464 100.32250137 -240.890625 99.35742188 C-235.61091032 94.14499598 -230.19969822 89.13474701 -224.5625 84.3125 C-223.50240859 83.3753894 -222.44374963 82.43665518 -221.38671875 81.49609375 C-193.13656558 56.63201228 -160.43966984 37.30623715 -125.5625 23.3125 C-124.24596436 22.78148682 -124.24596436 22.78148682 -122.90283203 22.23974609 C-97.7722235 12.25031749 -71.32795462 5.95263006 -44.5625 2.3125 C-43.88919647 2.2203421 -43.21589294 2.1281842 -42.52218628 2.03323364 C-28.35877147 0.15559732 -14.27145989 -0.04688559 0 0 Z " fill="#8757AE" transform="translate(499.5625,99.6875)"/>
<path d="M0 0 C0.69351563 0.07347656 1.38703125 0.14695312 2.1015625 0.22265625 C7.54030095 1.93277504 11.58096565 5.90484469 15.4921875 9.89453125 C15.95303741 10.36058273 16.41388733 10.82663422 16.88870239 11.30680847 C18.34738847 12.78312091 19.79916118 14.26597839 21.25 15.75 C22.69451723 17.22245525 24.1405992 18.69328339 25.58987427 20.16105652 C26.91083116 21.49959225 28.22682252 22.84302311 29.54248047 24.18676758 C31.69587929 26.27798845 33.86128897 28.2437972 36.13330078 30.19799805 C40.85276024 34.29019987 45.232425 38.68734377 49.625 43.125 C50.48254883 43.98633545 51.34009766 44.8476709 52.22363281 45.73510742 C55.85994939 49.38763983 59.49024371 53.04613635 63.12109375 56.70410156 C65.78697597 59.38815156 68.4559181 62.06913241 71.125 64.75 C71.93356445 65.56686279 72.74212891 66.38372559 73.57519531 67.2253418 C77.08352705 70.74863833 80.6052165 74.19378708 84.375 77.4375 C89.02399098 81.43772762 93.312395 85.76813451 97.625 90.125 C98.48254883 90.98633545 99.34009766 91.8476709 100.22363281 92.73510742 C103.85994939 96.38763983 107.49024371 100.04613635 111.12109375 103.70410156 C113.78697597 106.38815156 116.4559181 109.06913241 119.125 111.75 C119.93356445 112.56686279 120.74212891 113.38372559 121.57519531 114.2253418 C125.7564649 118.4244466 130.02268307 122.42712349 134.51455688 126.29077148 C137.46149524 128.89918632 140.16727272 131.72082735 142.88671875 134.5625 C144.06761502 135.7754647 145.24927724 136.98768411 146.43164062 138.19921875 C148.26250693 140.07978176 150.08820688 141.96439786 151.90161133 143.86181641 C153.67470416 145.71333951 155.46609556 147.54535488 157.26171875 149.375 C157.80140793 149.94879395 158.34109711 150.52258789 158.8971405 151.11376953 C160.59706529 152.89445684 160.59706529 152.89445684 163.375 154.9375 C166.78973688 154.88953339 167.93662924 154.30425184 170.55078125 152.1171875 C171.25589844 151.35664063 171.96101562 150.59609375 172.6875 149.8125 C175.33057625 146.98865883 178.0174904 144.35498581 180.95776367 141.84814453 C185.73000076 137.69182718 190.17473649 133.2459368 194.625 128.75 C195.48254883 127.88866455 196.34009766 127.0273291 197.22363281 126.13989258 C199.94320889 123.4081888 202.659512 120.67326725 205.375 117.9375 C208.95538026 114.33038149 212.53915181 110.72668198 216.125 107.125 C216.93356445 106.30813721 217.74212891 105.49127441 218.57519531 104.6496582 C222.70316093 100.50408475 226.91316893 96.55578431 231.34667969 92.7409668 C235.27310564 89.24981267 238.93018778 85.48273227 242.625 81.75 C243.48254883 80.88866455 244.34009766 80.0273291 245.22363281 79.13989258 C247.94320889 76.4081888 250.659512 73.67326725 253.375 70.9375 C256.95538026 67.33038149 260.53915181 63.72668198 264.125 60.125 C264.93356445 59.30813721 265.74212891 58.49127441 266.57519531 57.6496582 C270.08636768 54.12350893 273.6110677 50.67632671 277.38427734 47.43041992 C281.9844632 43.47235729 286.21827416 39.18297863 290.4765625 34.86328125 C292.20038703 33.12682029 293.92434945 31.3904962 295.6484375 29.65429688 C298.33397826 26.94388999 301.01788016 24.23189828 303.69921875 21.51733398 C306.30808797 18.87823425 308.92316518 16.24541222 311.5390625 13.61328125 C312.33607574 12.80280838 313.13308899 11.99233551 313.95425415 11.15730286 C320.1310406 4.95285719 324.8812383 0.35462993 333.93359375 -0.14453125 C345.62834988 0.24841256 354.97488196 13.39336292 362.6015625 21.1015625 C363.43408539 21.93787201 364.26660828 22.77418152 365.12435913 23.63583374 C367.75205099 26.27560567 370.37644232 28.91861967 373 31.5625 C376.468391 35.05764935 379.94019451 38.54935768 383.4140625 42.0390625 C384.19447906 42.8277774 384.97489563 43.61649231 385.77896118 44.42910767 C389.21348297 47.87879801 392.66620633 51.2437925 396.35693359 54.41943359 C401.01109284 58.42670152 405.30639416 62.76207208 409.625 67.125 C410.48254883 67.98633545 411.34009766 68.8476709 412.22363281 69.73510742 C415.85994939 73.38763983 419.49024371 77.04613635 423.12109375 80.70410156 C425.78697597 83.38815156 428.4559181 86.06913241 431.125 88.75 C431.93356445 89.56686279 432.74212891 90.38372559 433.57519531 91.2253418 C437.70749485 95.37526767 441.9218511 99.32863679 446.36010742 103.14746094 C450.20640374 106.5645268 453.78869219 110.25053269 457.40625 113.90625 C458.65927917 115.16495911 458.65927917 115.16495911 459.93762207 116.44909668 C463.47836129 120.0060452 467.01307324 123.5689612 470.54833984 127.13134766 C473.1447206 129.74590164 475.74416566 132.35738184 478.34375 134.96875 C479.13044067 135.76373901 479.91713135 136.55872803 480.72766113 137.37780762 C484.92291568 141.59143194 489.19574002 145.6280243 493.72888184 149.47741699 C495.375 150.9375 495.375 150.9375 497.5625 153.4375 C499.26062619 155.16335485 499.26062619 155.16335485 501.5378418 154.95947266 C505.86812015 153.39966324 508.42703636 150.35653485 511.58203125 147.0859375 C512.60836922 146.04755234 512.60836922 146.04755234 513.65544128 144.9881897 C515.84244182 142.77221474 518.01541165 140.54308524 520.1875 138.3125 C522.35133329 136.10590702 524.51804085 133.90221732 526.68742371 131.70108032 C528.03473622 130.33239099 529.37850038 128.96019577 530.7179718 127.58383179 C533.80334423 124.43424043 536.92907962 121.40965648 540.2722168 118.53369141 C544.95325253 114.49801899 549.27898993 110.1406134 553.625 105.75 C554.48254883 104.88866455 555.34009766 104.0273291 556.22363281 103.13989258 C558.94320889 100.4081888 561.659512 97.67326725 564.375 94.9375 C567.95538026 91.33038149 571.53915181 87.72668198 575.125 84.125 C575.93356445 83.30813721 576.74212891 82.49127441 577.57519531 81.6496582 C581.70316093 77.50408475 585.91316893 73.55578431 590.34667969 69.7409668 C594.27310564 66.24981267 597.93018778 62.48273227 601.625 58.75 C602.91132324 57.45799683 602.91132324 57.45799683 604.22363281 56.13989258 C606.94320889 53.4081888 609.659512 50.67326725 612.375 47.9375 C615.95538026 44.33038149 619.53915181 40.72668198 623.125 37.125 C623.93356445 36.30813721 624.74212891 35.49127441 625.57519531 34.6496582 C629.79786122 30.4089805 634.10496726 26.35642699 638.64208984 22.45446777 C640.81794281 20.54975343 642.824753 18.52102108 644.8125 16.421875 C645.93785156 15.25785156 645.93785156 15.25785156 647.0859375 14.0703125 C648.61980371 12.47362583 650.14580169 10.8693453 651.6640625 9.2578125 C656.90496709 3.87282806 661.16677193 0.37819622 668.9140625 -0.27734375 C669.60242188 -0.18582031 670.29078125 -0.09429687 671 0 C671.69351563 0.07347656 672.38703125 0.14695312 673.1015625 0.22265625 C678.64485319 1.96564971 682.72614535 6.0523489 686.7109375 10.11328125 C687.19398346 10.60152878 687.67702942 11.08977631 688.17471313 11.59281921 C689.70471831 13.14046369 691.22782311 14.69465863 692.75 16.25 C701.31867518 24.97651575 701.31867518 24.97651575 710.38232422 33.18286133 C714.50916581 36.81672686 718.36175637 40.7397752 722.25 44.625 C723.10335937 45.46611328 723.95671875 46.30722656 724.8359375 47.17382812 C725.650625 47.98658203 726.4653125 48.79933594 727.3046875 49.63671875 C728.40659424 50.73246216 728.40659424 50.73246216 729.53076172 51.8503418 C733.69336049 56.56123098 733.95187666 60.78715327 733.7890625 66.9296875 C733.09684098 71.9580891 730.87522913 74.3944359 727.375 77.9375 C726.87033203 78.46134277 726.36566406 78.98518555 725.84570312 79.52490234 C720.65341718 84.90899954 715.41808605 90.22101821 709.72607422 95.07983398 C704.97803578 99.21961543 700.55480452 103.64973216 696.125 108.125 C695.26745117 108.98633545 694.40990234 109.8476709 693.52636719 110.73510742 C690.80679111 113.4668112 688.090488 116.20173275 685.375 118.9375 C681.79461974 122.54461851 678.21084819 126.14831802 674.625 129.75 C673.81643555 130.56686279 673.00787109 131.38372559 672.17480469 132.2253418 C668.00472473 136.41320924 663.75314158 140.41244004 659.2734375 144.2661438 C656.13195004 147.03186274 653.19565496 149.99355287 650.25 152.96484375 C649.30145142 153.91551476 649.30145142 153.91551476 648.33374023 154.88539124 C646.34510014 156.87955978 644.35999473 158.87720353 642.375 160.875 C641.01455682 162.24046745 639.65388169 163.60570386 638.29296875 164.97070312 C634.9842969 168.29030886 631.67878678 171.61303273 628.375 174.9375 C627.385 174.6075 626.395 174.2775 625.375 173.9375 C626.72761234 170.83050927 628.12743567 169.06210908 630.75 166.9375 C634.37702749 163.8669659 637.77970832 160.62182443 641.125 157.25 C641.6317627 156.73993408 642.13852539 156.22986816 642.66064453 155.7043457 C644.23408247 154.11734789 645.80497661 152.52787554 647.375 150.9375 C649.45526591 148.83026768 651.53908366 146.72663765 653.625 144.625 C654.53765625 143.70074219 655.4503125 142.77648437 656.390625 141.82421875 C658.5685998 139.66969104 660.83385776 137.65391072 663.15625 135.65625 C667.86822322 131.57138989 672.23979293 127.18021268 676.625 122.75 C677.48254883 121.88866455 678.34009766 121.0273291 679.22363281 120.13989258 C681.94320889 117.4081888 684.659512 114.67326725 687.375 111.9375 C690.95538026 108.33038149 694.53915181 104.72668198 698.125 101.125 C698.93356445 100.30813721 699.74212891 99.49127441 700.57519531 98.6496582 C704.79439589 94.41246062 709.08423028 90.33345057 713.62785339 86.44482422 C716.4129732 84.04200438 719.06155434 81.51182157 721.6875 78.9375 C722.19861328 78.45539063 722.70972656 77.97328125 723.23632812 77.4765625 C726.84840174 73.92555125 728.73589997 70.74814631 730.375 65.9375 C730.23133953 57.74885334 725.58961284 52.89711238 720.015625 47.34765625 C719.5075531 46.84004257 718.9994812 46.33242889 718.47601318 45.80943298 C717.40597607 44.7423986 716.33352806 43.67777691 715.25878906 42.61547852 C713.63813505 41.01298784 712.02553466 39.40273388 710.4140625 37.79101562 C705.4941695 32.88857898 700.52059958 28.10923952 695.23876953 23.59399414 C690.96552723 19.79599191 687.06539585 15.58415945 683.11132812 11.45898438 C682.10682617 10.43321289 682.10682617 10.43321289 681.08203125 9.38671875 C680.4888208 8.77143311 679.89561035 8.15614746 679.28442383 7.5222168 C675.01213731 3.97645388 670.80514296 3.46117167 665.375 3.9375 C660.88466003 5.83046435 657.86116537 8.09982833 654.4765625 11.578125 C653.58453125 12.48433594 652.6925 13.39054687 651.7734375 14.32421875 C650.85820313 15.26910156 649.94296875 16.21398437 649 17.1875 C647.18213219 19.04926519 645.36185841 20.90868449 643.5390625 22.765625 C642.33950928 24.0016748 642.33950928 24.0016748 641.11572266 25.26269531 C638.99947243 27.32804695 636.86869452 29.2613722 634.63037109 31.18652344 C629.90611577 35.28250657 625.52186636 39.68300837 621.125 44.125 C619.83867676 45.41700317 619.83867676 45.41700317 618.52636719 46.73510742 C615.80679111 49.4668112 613.090488 52.20173275 610.375 54.9375 C606.79461974 58.54461851 603.21084819 62.14831802 599.625 65.75 C598.81643555 66.56686279 598.00787109 67.38372559 597.17480469 68.2253418 C593.03383593 72.38397386 588.81078476 76.34747939 584.36303711 80.17431641 C580.67710932 83.44335367 577.24429161 86.96702778 573.78125 90.46875 C572.59480896 91.66087097 572.59480896 91.66087097 571.38439941 92.8770752 C568.87880477 95.39478432 566.37649142 97.91571446 563.875 100.4375 C560.5758832 103.76338189 557.27335626 107.08582336 553.96875 110.40625 C553.22580688 111.15749146 552.48286377 111.90873291 551.71740723 112.68273926 C547.71791259 116.70072814 543.61762703 120.505529 539.32342529 124.20501709 C535.98746172 127.17125855 532.90873957 130.38075396 529.8046875 133.5859375 C528.40033592 135.01751232 526.99537014 136.44848484 525.58984375 137.87890625 C523.40711826 140.10503962 521.22852912 142.3346794 519.06005859 144.57470703 C516.94467645 146.75662557 514.81377204 148.92232875 512.6796875 151.0859375 C511.71384232 152.09519791 511.71384232 152.09519791 510.72848511 153.12484741 C508.0646487 155.80431569 505.86748029 157.71000745 502.41845703 159.30322266 C497.4485111 158.70599989 494.82227938 155.36428152 491.375 151.9375 C490.10168199 150.76277762 488.82510666 149.59157531 487.54516602 148.42407227 C476.55390166 138.15049231 465.90483499 127.55741863 455.3125 116.875 C452.09544313 113.63112101 448.87490153 110.39075698 445.65234375 107.15234375 C444.93763412 106.42933578 444.2229245 105.70632782 443.48655701 104.96141052 C440.2275819 101.68672663 436.93852356 98.51210623 433.43579102 95.49829102 C428.76938483 91.47441139 424.45779345 87.12726114 420.125 82.75 C419.26745117 81.88866455 418.40990234 81.0273291 417.52636719 80.13989258 C413.89005061 76.48736017 410.25975629 72.82886365 406.62890625 69.17089844 C403.96302403 66.48684844 401.2940819 63.80586759 398.625 61.125 C397.81643555 60.30813721 397.00787109 59.49127441 396.17480469 58.6496582 C392.6588358 55.11869195 389.12911738 51.66824491 385.34985352 48.41894531 C380.83089254 44.53097796 376.69209561 40.30766867 372.52734375 36.046875 C370.85396086 34.35112303 369.18011907 32.65582379 367.50585938 30.9609375 C364.89883277 28.31673449 362.29502658 25.66962994 359.69897461 23.01464844 C357.17172748 20.43288039 354.63192832 17.86402386 352.08984375 15.296875 C350.93487648 14.10623444 350.93487648 14.10623444 349.75657654 12.89154053 C344.51074233 7.62049409 340.43664201 4.44520525 332.875 3.5 C323.50744477 4.6709444 317.66603973 12.32213021 311.4375 18.75 C310.00011882 20.22286007 308.56045827 21.69338183 307.11778259 23.16105652 C305.80459245 24.49857696 304.49789885 25.84246693 303.19165039 27.18676758 C301.03262927 29.29526121 298.86065594 31.272699 296.57788086 33.23901367 C292.10425425 37.1160516 287.94229878 41.26122418 283.78125 45.46875 C282.99028931 46.26349731 282.19932861 47.05824463 281.38439941 47.8770752 C278.87880477 50.39478432 276.37649142 52.91571446 273.875 55.4375 C270.5758832 58.76338189 267.27335626 62.08582336 263.96875 65.40625 C263.22580688 66.15749146 262.48286377 66.90873291 261.71740723 67.68273926 C258.37497493 71.04062746 255.00817422 74.30579522 251.41601562 77.39648438 C246.7552823 81.41268166 242.45122723 85.75437247 238.125 90.125 C237.26745117 90.98633545 236.40990234 91.8476709 235.52636719 92.73510742 C232.80679111 95.4668112 230.090488 98.20173275 227.375 100.9375 C223.79461974 104.54461851 220.21084819 108.14831802 216.625 111.75 C215.81643555 112.56686279 215.00787109 113.38372559 214.17480469 114.2253418 C210.00346509 118.41447425 205.75003821 122.41355462 201.26898193 126.26837158 C198.14837543 129.01849971 195.23965389 131.96905996 192.3203125 134.9296875 C191.69269012 135.5610965 191.06506775 136.19250549 190.41842651 136.8430481 C188.44313059 138.83041573 186.47116401 140.82103464 184.5 142.8125 C181.8804633 145.45858606 179.25765329 148.10136413 176.6328125 150.7421875 C175.73443161 151.6530159 175.73443161 151.6530159 174.81790161 152.58224487 C169.70904322 157.72153025 169.70904322 157.72153025 165.6484375 158.37890625 C160.94240949 157.74432252 159.09966483 155.29286714 156 151.875 C154.9325455 150.73559697 153.86219992 149.59889597 152.7890625 148.46484375 C152.23637695 147.87944824 151.68369141 147.29405273 151.11425781 146.69091797 C149.36163417 144.92402535 147.54053041 143.30734806 145.6484375 141.69140625 C139.75556116 136.62534014 134.39025743 131.01007926 128.93847656 125.48046875 C127.52366287 124.04730594 126.10564302 122.61736733 124.6875 121.1875 C123.85863281 120.34703125 123.02976562 119.5065625 122.17578125 118.640625 C120.00712872 116.54758797 117.81845882 114.56787172 115.5390625 112.6015625 C111.31367491 108.93568752 107.36743862 105.04058703 103.4375 101.0625 C102.71312744 100.33434082 101.98875488 99.60618164 101.24243164 98.85595703 C98.17957576 95.77693049 95.12277689 92.69191677 92.06542969 89.60742188 C89.81655883 87.34034542 87.56459762 85.07637034 85.3125 82.8125 C84.63517822 82.12687988 83.95785645 81.44125977 83.26000977 80.73486328 C80.08366571 77.54248301 76.87143061 74.45709937 73.45703125 71.51953125 C68.7845239 67.48741254 64.46484491 63.13438496 60.125 58.75 C59.26745117 57.88866455 58.40990234 57.0273291 57.52636719 56.13989258 C53.89005061 52.48736017 50.25975629 48.82886365 46.62890625 45.17089844 C43.96302403 42.48684844 41.2940819 39.80586759 38.625 37.125 C37.81643555 36.30813721 37.00787109 35.49127441 36.17480469 34.6496582 C31.94090111 30.3976949 27.62374855 26.32883742 23.0743103 22.41641235 C21.11524262 20.71143275 19.28459655 18.91807668 17.48828125 17.04296875 C16.85986328 16.39779297 16.23144531 15.75261719 15.58398438 15.08789062 C14.30423883 13.76333421 13.0282758 12.43511421 11.75585938 11.10351562 C7.3825814 6.63094754 4.33960241 4.20700931 -2.0625 3.625 C-8.39854443 4.18079337 -12.2547991 7.1912614 -16.59375 11.6484375 C-17.49480469 12.56367188 -18.39585937 13.47890625 -19.32421875 14.421875 C-20.25825507 15.38498765 -21.19184583 16.34853261 -22.125 17.3125 C-34.03269411 29.52233581 -34.03269411 29.52233581 -38.625 32.9375 C-39.285 32.9375 -39.945 32.9375 -40.625 32.9375 C-40.0805327 29.08369237 -38.56702363 27.70002981 -35.625 25.25 C-32.0679778 22.19014085 -28.7206052 19.05286788 -25.4609375 15.67578125 C-24.72617188 14.9180542 -23.99140625 14.16032715 -23.234375 13.37963867 C-21.76855328 11.85952133 -20.31242505 10.32998397 -18.8671875 8.7902832 C-13.59888157 3.36164287 -8.08022152 -1.07433657 0 0 Z " fill="#8458C9" transform="translate(166.625,299.0625)"/>
<path d="M0 0 C1.15796082 0.00182281 2.31592163 0.00364563 3.50897217 0.00552368 C20.08140597 0.04953753 36.26767771 0.43274962 52.625 3.3125 C53.64384277 3.47878906 54.66268555 3.64507812 55.71240234 3.81640625 C128.09427722 15.72385863 190.08484401 50.01457406 242.625 100.3125 C243.24955078 100.90836914 243.87410156 101.50423828 244.51757812 102.11816406 C246.33447749 103.86022763 248.13826284 105.61471722 249.9375 107.375 C250.482854 107.89892334 251.02820801 108.42284668 251.59008789 108.96264648 C256.03887649 113.37292979 257.90129108 117.00172532 258 123.25 C258.02835938 124.06339844 258.05671875 124.87679687 258.0859375 125.71484375 C257.10958206 131.21718584 252.91548225 135.27191633 249.07519531 139.10522461 C247.73294891 140.45208595 247.73294891 140.45208595 246.36358643 141.82615662 C245.39361014 142.78923115 244.42345173 143.75212229 243.453125 144.71484375 C242.44630985 145.72046421 241.43986693 146.72645747 240.43377686 147.73280334 C238.32872381 149.83629743 236.22037273 151.93640773 234.109375 154.03393555 C231.42370316 156.70267364 228.7446046 159.37789056 226.0677681 162.05548763 C223.99008287 164.1328988 221.90978494 166.20767723 219.82863617 168.28161812 C218.84102958 169.26607496 217.85399898 170.25111003 216.86759186 171.23676872 C211.2963416 176.79916988 205.7050931 182.30242294 199.625 187.3125 C198.958172 187.86739609 198.29134399 188.42229218 197.60430908 188.9940033 C195.625 190.3125 195.625 190.3125 192.375 190.4375 C183.62680766 187.8130423 177.05456808 178.79760165 170.8125 172.4375 C164.02685052 165.58869364 157.26598233 159.19494182 149.625 153.3125 C147.91640987 151.85446754 146.20808804 150.39612063 144.5 148.9375 C97.67122028 110.92200186 34.08776604 95.50852338 -25.25 101.5625 C-69.99487933 106.70094421 -113.87160296 124.03183939 -148.375 153.3125 C-149.77685547 154.43978516 -149.77685547 154.43978516 -151.20703125 155.58984375 C-161.13055285 163.69353941 -170.03891529 172.82759196 -179.01977539 181.94311523 C-179.55580887 182.48587097 -180.09184235 183.02862671 -180.64411926 183.58782959 C-181.66332812 184.62085454 -182.68018724 185.65620447 -183.69438171 186.69415283 C-186.81136967 189.85519533 -188.19838619 191.21870195 -192.70703125 191.578125 C-199.18640969 191.10890484 -202.8328359 186.6049549 -207.375 182.3125 C-208.18984863 181.54534668 -209.00469727 180.77819336 -209.84423828 179.98779297 C-212.62557161 177.34614992 -215.37931054 174.6786511 -218.125 172 C-219.5030481 170.67403809 -219.5030481 170.67403809 -220.90893555 169.32128906 C-222.18377808 168.05430176 -222.18377808 168.05430176 -223.484375 166.76171875 C-224.25749023 166.00205811 -225.03060547 165.24239746 -225.82714844 164.4597168 C-227.375 162.3125 -227.375 162.3125 -227.11816406 160.03442383 C-226.75029785 159.18207153 -226.75029785 159.18207153 -226.375 158.3125 C-226.045 159.3025 -225.715 160.2925 -225.375 161.3125 C-224.04619519 161.98814784 -222.71186926 162.65295258 -221.375 163.3125 C-219.71299318 164.82311298 -218.10340291 166.39217557 -216.53125 167.99609375 C-215.61472656 168.92357422 -214.69820313 169.85105469 -213.75390625 170.80664062 C-212.79390973 171.78740709 -211.83427762 172.76853038 -210.875 173.75 C-208.99287922 175.66866991 -207.10659017 177.58302927 -205.21875 179.49609375 C-204.38537109 180.34743896 -203.55199219 181.19878418 -202.69335938 182.07592773 C-201.92830078 182.81399658 -201.16324219 183.55206543 -200.375 184.3125 C-199.75947266 184.90683838 -199.14394531 185.50117676 -198.50976562 186.11352539 C-195.28924842 187.92230398 -193.00125879 187.77997946 -189.375 187.3125 C-186.66658572 185.54555426 -186.66658572 185.54555426 -184.37890625 182.96484375 C-183.49009766 182.04896484 -182.60128906 181.13308594 -181.68554688 180.18945312 C-180.76877968 179.21033858 -179.85276768 178.23051641 -178.9375 177.25 C-177.12861461 175.36106401 -175.31745344 173.47430445 -173.50390625 171.58984375 C-172.63540039 170.68266602 -171.76689453 169.77548828 -170.87207031 168.84082031 C-168.06135981 165.99493471 -165.13017289 163.36239954 -162.0847168 160.77270508 C-159.80844398 158.82862573 -157.6667981 156.75215947 -155.5 154.6875 C-123.92312663 125.98521096 -83.78603397 108.79137826 -42.375 100.3125 C-41.5284082 100.13315918 -40.68181641 99.95381836 -39.80957031 99.76904297 C-13.58988974 94.45652419 17.47280566 94.88201636 43.625 100.3125 C44.63304687 100.51117676 45.64109375 100.70985352 46.6796875 100.91455078 C62.20953203 104.02191626 76.94376441 108.38844066 91.625 114.3125 C92.35364258 114.60237793 93.08228516 114.89225586 93.83300781 115.19091797 C114.90049631 123.65844678 134.25405535 135.73283038 151.625 150.3125 C152.58535156 151.08851563 153.54570313 151.86453125 154.53515625 152.6640625 C160.47348026 157.54164772 166.04646385 162.67231279 171.42578125 168.1640625 C172.18921089 168.94090645 172.18921089 168.94090645 172.96806335 169.73344421 C175.54105043 172.35619336 178.09630549 174.99347325 180.62963867 177.65454102 C181.58603058 178.63856785 182.54280171 179.62222629 183.5 180.60546875 C184.34304688 181.4874292 185.18609375 182.36938965 186.0546875 183.27807617 C189.01656266 185.62242512 190.87998638 186.14407945 194.625 186.3125 C197.08635428 185.1223403 197.08635428 185.1223403 199.1875 183.1875 C199.91066406 182.58679688 200.63382813 181.98609375 201.37890625 181.3671875 C205.61828055 177.48908162 209.59770651 173.33513416 213.64453125 169.2578125 C215.08334458 167.81161726 216.52264481 166.36590855 217.9621582 164.92041016 C218.94125767 163.936288 219.91945695 162.95126938 220.89672852 161.96533203 C226.05252276 156.76523357 231.23987571 151.66518209 236.80444336 146.89941406 C239.82614408 144.26550569 242.66487177 141.45676907 245.5 138.625 C246.0671875 138.07005859 246.634375 137.51511719 247.21875 136.94335938 C251.61633186 132.56140873 253.90448727 129.45311003 254.1875 123.0625 C254.25066406 122.17046875 254.31382812 121.2784375 254.37890625 120.359375 C253.19547897 115.5766119 250.00729194 112.77637609 246.625 109.3125 C245.98264404 108.64428223 245.34028809 107.97606445 244.6784668 107.28759766 C242.70079264 105.25487153 240.69868172 103.24954518 238.6875 101.25 C238.02298828 100.58162109 237.35847656 99.91324219 236.67382812 99.22460938 C232.15575395 94.71529965 227.46716549 90.46955532 222.625 86.3125 C221.63757813 85.44367188 220.65015625 84.57484375 219.6328125 83.6796875 C210.70838907 75.96453554 201.28544745 69.07437865 191.625 62.3125 C190.99368164 61.86519531 190.36236328 61.41789062 189.71191406 60.95703125 C143.18619054 28.10345136 86.12728776 9.08577775 29.625 4.3125 C28.41585937 4.20164062 27.20671875 4.09078125 25.9609375 3.9765625 C3.15854604 2.20037622 -19.63302308 3.34856263 -42.375 5.3125 C-42.045 4.3225 -41.715 3.3325 -41.375 2.3125 C-27.59239559 0.05840808 -13.93763211 -0.04527058 0 0 Z " fill="#844BB5" transform="translate(499.375,99.6875)"/>
<path d="M0 0 C4.3148735 0.90741975 6.66030326 3.71940758 9.73046875 6.76171875 C10.75140625 7.74495117 10.75140625 7.74495117 11.79296875 8.74804688 C18.74661114 15.48438795 25.57178798 22.35901745 32.37109375 29.25073242 C33.63179687 30.52460815 33.63179687 30.52460815 34.91796875 31.82421875 C35.65402344 32.571875 36.39007812 33.31953125 37.1484375 34.08984375 C39.23950445 36.10182345 41.36111279 38.00496934 43.5559082 39.8996582 C47.66540317 43.46839384 51.5134417 47.24535874 55.3359375 51.1171875 C56.02303299 51.80806961 56.71012848 52.49895172 57.41804504 53.21076965 C59.58716271 55.39197678 61.75297371 57.57642009 63.91796875 59.76171875 C66.78353557 62.65396268 69.652457 65.5428185 72.5234375 68.4296875 C73.17249557 69.08704391 73.82155365 69.74440033 74.49028015 70.42167664 C77.14019972 73.08584156 79.72236495 75.56784233 82.6809082 77.89575195 C83.35726318 78.449646 84.03361816 79.00354004 84.73046875 79.57421875 C84.73046875 80.23421875 84.73046875 80.89421875 84.73046875 81.57421875 C85.32026016 81.83869308 85.91005157 82.10316742 86.51771545 82.37565613 C88.81078931 83.61772528 90.30325301 84.90548772 92.13452148 86.7512207 C92.77876572 87.395616 93.42300995 88.04001129 94.08677673 88.70393372 C94.77228104 89.39976059 95.45778534 90.09558746 96.1640625 90.8125 C96.87901382 91.53028122 97.59396515 92.24806244 98.33058167 92.9875946 C100.61445213 95.28264654 102.89128308 97.58454151 105.16796875 99.88671875 C106.6968036 101.42558936 108.22609549 102.96400605 109.75585938 104.50195312 C112.57242818 107.33483918 115.38633029 110.17031576 118.19702148 113.0090332 C118.80788605 113.62518494 119.41875061 114.24133667 120.04812622 114.87615967 C121.50504013 116.34668416 122.95941845 117.81971996 124.41333008 119.29321289 C126.66996046 121.51465401 128.99245844 123.61742145 131.37109375 125.70703125 C137.95959285 131.59956214 144.08021823 137.93772248 150.2265625 144.28515625 C151.10957031 145.18234375 151.99257813 146.07953125 152.90234375 147.00390625 C153.68706055 147.81069824 154.47177734 148.61749023 155.28027344 149.44873047 C158.89858263 152.58753077 162.83755234 155.00152517 167.73046875 155.01171875 C168.34921875 155.03105469 168.96796875 155.05039062 169.60546875 155.0703125 C175.69374185 153.64896933 180.56384075 148.15488151 184.94921875 143.98046875 C185.63866577 143.32896851 186.32811279 142.67746826 187.03845215 142.00622559 C195.60292284 133.86467988 203.91188334 125.46534996 212.23046875 117.07421875 C215.36288756 113.91497254 218.4987918 110.75924297 221.63671875 107.60546875 C222.33269165 106.90119751 223.02866455 106.19692627 223.74572754 105.47131348 C226.9675324 102.23358888 230.22365882 99.10116372 233.68603516 96.12084961 C238.19501802 92.23151345 242.35794529 88.036793 246.53515625 83.796875 C248.18606904 82.13333563 249.83711445 80.46992787 251.48828125 78.80664062 C254.06439503 76.20555683 256.63887037 73.60288834 259.2109375 70.99780273 C261.71053908 68.46818514 264.21617062 65.94466891 266.72265625 63.421875 C267.88352249 62.24081932 267.88352249 62.24081932 269.06784058 61.03590393 C270.14003342 59.95864296 270.14003342 59.95864296 271.23388672 58.85961914 C272.17698196 57.90533775 272.17698196 57.90533775 273.13912964 56.93177795 C274.73046875 55.57421875 274.73046875 55.57421875 276.73046875 55.57421875 C277.01921875 54.97609375 277.30796875 54.37796875 277.60546875 53.76171875 C278.73046875 51.57421875 278.73046875 51.57421875 280.73046875 48.57421875 C278.60512216 48.71491071 276.48019346 48.86192796 274.35546875 49.01171875 C273.17210937 49.09292969 271.98875 49.17414063 270.76953125 49.2578125 C267.81527974 49.38506811 267.81527974 49.38506811 265.73046875 50.57421875 C263.91577148 50.61181641 263.91577148 50.61181641 261.6640625 50.48828125 C260.80111572 50.44501709 259.93816895 50.40175293 259.04907227 50.35717773 C257.62292603 50.27898804 257.62292603 50.27898804 256.16796875 50.19921875 C245.71203312 49.68073554 235.2568112 49.31699491 224.79296875 49.01171875 C224.04425507 48.9896637 223.29554138 48.96760864 222.5241394 48.94488525 C218.25964014 48.81928494 213.99508618 48.69575234 209.73046875 48.57421875 C209.73046875 47.91421875 209.73046875 47.25421875 209.73046875 46.57421875 C205.77046875 46.57421875 201.81046875 46.57421875 197.73046875 46.57421875 C197.73046875 45.91421875 197.73046875 45.25421875 197.73046875 44.57421875 C194.76046875 44.57421875 191.79046875 44.57421875 188.73046875 44.57421875 C188.40046875 43.91421875 188.07046875 43.25421875 187.73046875 42.57421875 C185.40890278 42.16692647 183.07359005 41.82983198 180.73046875 41.57421875 C180.73046875 40.91421875 180.73046875 40.25421875 180.73046875 39.57421875 C179.44849609 39.59162109 179.44849609 39.59162109 178.140625 39.609375 C176.48353516 39.62291016 176.48353516 39.62291016 174.79296875 39.63671875 C173.69082031 39.64832031 172.58867188 39.65992188 171.453125 39.671875 C168.73046875 39.57421875 168.73046875 39.57421875 167.73046875 38.57421875 C165.71735426 38.17852767 163.69449667 37.83169684 161.66796875 37.51171875 C160.56324219 37.33511719 159.45851563 37.15851563 158.3203125 36.9765625 C157.46566406 36.84378906 156.61101562 36.71101563 155.73046875 36.57421875 C155.73046875 35.91421875 155.73046875 35.25421875 155.73046875 34.57421875 C152.43046875 34.57421875 149.13046875 34.57421875 145.73046875 34.57421875 C145.73046875 33.91421875 145.73046875 33.25421875 145.73046875 32.57421875 C143.42046875 32.57421875 141.11046875 32.57421875 138.73046875 32.57421875 C138.40046875 31.91421875 138.07046875 31.25421875 137.73046875 30.57421875 C136.41046875 30.57421875 135.09046875 30.57421875 133.73046875 30.57421875 C133.73046875 29.58421875 133.73046875 28.59421875 133.73046875 27.57421875 C140.00046875 27.57421875 146.27046875 27.57421875 152.73046875 27.57421875 C152.73046875 28.23421875 152.73046875 28.89421875 152.73046875 29.57421875 C155.04046875 29.90421875 157.35046875 30.23421875 159.73046875 30.57421875 C159.73046875 31.23421875 159.73046875 31.89421875 159.73046875 32.57421875 C162.04046875 32.57421875 164.35046875 32.57421875 166.73046875 32.57421875 C166.73046875 33.23421875 166.73046875 33.89421875 166.73046875 34.57421875 C173.00046875 34.57421875 179.27046875 34.57421875 185.73046875 34.57421875 C185.73046875 35.23421875 185.73046875 35.89421875 185.73046875 36.57421875 C189.03046875 36.90421875 192.33046875 37.23421875 195.73046875 37.57421875 C195.73046875 38.23421875 195.73046875 38.89421875 195.73046875 39.57421875 C194.74046875 39.57421875 193.75046875 39.57421875 192.73046875 39.57421875 C192.73046875 40.23421875 192.73046875 40.89421875 192.73046875 41.57421875 C225.07046875 41.57421875 257.41046875 41.57421875 290.73046875 41.57421875 C290.73046875 40.91421875 290.73046875 40.25421875 290.73046875 39.57421875 C291.39046875 39.90421875 292.05046875 40.23421875 292.73046875 40.57421875 C292.73046875 43.57421875 292.73046875 43.57421875 291.04296875 45.58984375 C289.89828125 46.69585937 289.89828125 46.69585937 288.73046875 47.82421875 C287.61671875 48.91476562 287.61671875 48.91476562 286.48046875 50.02734375 C284.39693833 51.95697703 282.29175025 53.81304804 280.13671875 55.65917969 C275.37332109 59.82133636 270.92880088 64.26773315 266.48046875 68.76171875 C265.62291992 69.6230542 264.76537109 70.48438965 263.88183594 71.37182617 C261.16225986 74.10352995 258.44595675 76.8384515 255.73046875 79.57421875 C252.15008849 83.18133726 248.56631694 86.78503677 244.98046875 90.38671875 C243.76762207 91.61201294 243.76762207 91.61201294 242.53027344 92.86206055 C238.3979739 97.01198642 234.18361765 100.96535554 229.74536133 104.78417969 C225.89906501 108.20124555 222.31677656 111.88725144 218.69921875 115.54296875 C217.86386597 116.38210815 217.02851318 117.22124756 216.16784668 118.08581543 C213.51959789 120.74618775 210.87462469 123.40977888 208.23046875 126.07421875 C204.74384274 129.58759148 201.25381949 133.09753846 197.76171875 136.60546875 C196.97502808 137.40045776 196.1883374 138.19544678 195.37780762 139.01452637 C191.17917318 143.23154539 186.90172943 147.27355835 182.3704834 151.13244629 C180.58360369 152.65183619 180.58360369 152.65183619 178.60546875 154.88671875 C175.47293144 157.70600233 172.53167303 158.54781673 168.33203125 158.609375 C159.0392092 158.03729436 154.12599663 153.27035762 147.86328125 146.8671875 C147.22486298 146.22356766 146.5864447 145.57994781 145.92868042 144.91682434 C143.89942044 142.86985949 141.87699588 140.8163184 139.85546875 138.76171875 C137.84025471 136.71868362 135.82352075 134.67721 133.80368042 132.63874817 C132.55187555 131.37490425 131.30274751 130.10840067 130.05691528 128.83866882 C127.08667732 125.83502296 124.06568527 122.95965905 120.86279297 120.2043457 C116.17495871 116.15425568 111.83676393 111.78772282 107.48046875 107.38671875 C106.19414551 106.09471558 106.19414551 106.09471558 104.88183594 104.77661133 C101.24551936 101.12407892 97.61522504 97.4655824 93.984375 93.80761719 C91.31849278 91.12356719 88.64955065 88.44258634 85.98046875 85.76171875 C85.1719043 84.94485596 84.36333984 84.12799316 83.53027344 83.28637695 C80.0219417 79.76308042 76.50025225 76.31793167 72.73046875 73.07421875 C68.08147777 69.07399113 63.79307375 64.74358424 59.48046875 60.38671875 C58.62291992 59.5253833 57.76537109 58.66404785 56.88183594 57.77661133 C53.24551936 54.12407892 49.61522504 50.4655824 45.984375 46.80761719 C43.31849278 44.12356719 40.64955065 41.44258634 37.98046875 38.76171875 C37.1719043 37.94485596 36.36333984 37.12799316 35.53027344 36.28637695 C31.31429709 32.05241735 27.01333457 28.00920438 22.48348999 24.11352539 C20.18169142 22.09234405 18.06995579 19.9267547 15.96875 17.69921875 C15.15986328 16.86003906 14.35097656 16.02085937 13.51757812 15.15625 C11.84659228 13.41272728 10.18532594 11.65984471 8.53320312 9.8984375 C7.72818359 9.06957031 6.92316406 8.24070312 6.09375 7.38671875 C5.37485596 6.63003906 4.65596191 5.87335938 3.9152832 5.09375 C1.80859902 3.29334779 1.80859902 3.29334779 -0.92895508 3.73828125 C-3.42493222 4.62972025 -4.59711885 5.54971953 -6.26953125 7.57421875 C-6.92953125 7.24421875 -7.58953125 6.91421875 -8.26953125 6.57421875 C-7.39058054 5.55934782 -6.49048743 4.56276553 -5.58203125 3.57421875 C-5.08316406 3.01734375 -4.58429688 2.46046875 -4.0703125 1.88671875 C-2.26953125 0.57421875 -2.26953125 0.57421875 0 0 Z " fill="#4EB66F" transform="translate(500.26953125,432.42578125)"/>
<path d="M0 0 C3.85027206 1.57964187 6.24625535 4.03144395 9.140625 6.98046875 C9.62650085 7.47154617 10.11237671 7.9626236 10.61297607 8.46858215 C12.16350303 10.03685648 13.70719156 11.61163482 15.25 13.1875 C16.77930931 14.74469871 18.31014947 16.3003083 19.84417725 17.8528595 C21.24748537 19.27381503 22.64586889 20.69962912 24.04394531 22.12573242 C26.20760783 24.27961964 28.46198075 26.28788625 30.77636719 28.27856445 C35.49058865 32.36383144 39.86341579 36.75589605 44.25 41.1875 C45.10754883 42.04883545 45.96509766 42.9101709 46.84863281 43.79760742 C50.48494939 47.45013983 54.11524371 51.10863635 57.74609375 54.76660156 C60.41197597 57.45065156 63.0809181 60.13163241 65.75 62.8125 C66.55856445 63.62936279 67.36712891 64.44622559 68.20019531 65.2878418 C72.35850789 69.46389166 76.59894273 73.44766611 81.06567383 77.29052734 C84.43040299 80.26412744 87.56479262 83.46236175 90.71875 86.65625 C91.77201477 87.7151947 91.77201477 87.7151947 92.84655762 88.79553223 C95.81383766 91.77897375 98.77505363 94.7684071 101.73681641 97.75732422 C103.91618465 99.95490579 106.09864947 102.14937938 108.28125 104.34375 C108.936698 105.00749634 109.592146 105.67124268 110.26745605 106.35510254 C114.09305318 110.20062338 118.04016435 113.82724494 122.14611816 117.37097168 C124.72361103 119.63584573 127.12067518 122.02605798 129.53125 124.46875 C130.01146606 124.95275269 130.49168213 125.43675537 130.9864502 125.9354248 C132.99799879 127.96299646 135.00337653 129.99662849 137.00927734 132.02978516 C138.49359897 133.5324377 139.98111204 135.03188165 141.46875 136.53125 C142.33951172 137.41361328 143.21027344 138.29597656 144.10742188 139.20507812 C146.25128325 141.32518012 148.48591306 143.30421048 150.77197266 145.26977539 C155.46868514 149.34315832 159.81669523 153.72716385 164.1796875 158.15234375 C165.93085122 159.91615301 167.68215772 161.67982052 169.43359375 163.44335938 C172.15613054 166.19066434 174.87702803 168.93955296 177.59521484 171.69116211 C180.24385486 174.37024351 182.89887809 177.04287186 185.5546875 179.71484375 C186.35292938 180.52654526 187.15117126 181.33824677 187.97360229 182.17454529 C198.63657747 193.54607566 198.63657747 193.54607566 212.63671875 198.42578125 C219.16303857 197.24996495 223.87725842 192.53642998 228.30859375 187.94921875 C229.16421654 187.08367119 229.16421654 187.08367119 230.03712463 186.20063782 C231.84458355 184.36997366 233.64152234 182.52942297 235.4375 180.6875 C237.23158435 178.85804275 239.02790795 177.03086877 240.8271637 175.20649719 C241.94036447 174.07667753 243.05044768 172.94377305 244.15660095 171.80705261 C246.94723713 168.96377881 249.80363926 166.26963256 252.82446289 163.67114258 C257.52560826 159.60585593 261.8796091 155.22774445 266.25 150.8125 C267.10754883 149.95116455 267.96509766 149.0898291 268.84863281 148.20239258 C271.56820889 145.4706888 274.284512 142.73576725 277 140 C280.58038026 136.39288149 284.16415181 132.78918198 287.75 129.1875 C288.55856445 128.37063721 289.36712891 127.55377441 290.20019531 126.7121582 C294.32816093 122.56658475 298.53816893 118.61828431 302.97167969 114.8034668 C306.89810564 111.31231267 310.55518778 107.54523227 314.25 103.8125 C315.10754883 102.95116455 315.96509766 102.0898291 316.84863281 101.20239258 C319.56820889 98.4706888 322.284512 95.73576725 325 93 C328.58038026 89.39288149 332.16415181 85.78918198 335.75 82.1875 C336.55856445 81.37063721 337.36712891 80.55377441 338.20019531 79.7121582 C342.40065572 75.49378072 346.68262597 71.45910138 351.19555664 67.57736206 C353.77580118 65.32183 356.17722735 62.93481297 358.59375 60.50390625 C359.07074341 60.02549789 359.54773682 59.54708954 360.03918457 59.05418396 C361.52853695 57.55933486 363.01433149 56.06100941 364.5 54.5625 C365.52320139 53.5342702 366.54663733 52.50627374 367.5703125 51.47851562 C370.04957999 48.98835662 372.52567538 46.49507167 375 44 C375.66 44.33 376.32 44.66 377 45 C375.33806671 47.00409602 373.67122103 49.0036656 372 51 C371.55978516 51.52907959 371.11957031 52.05815918 370.66601562 52.60327148 C366.85835279 57.12050759 362.81407443 61.33667807 358.625 65.5 C358.00367188 66.12519531 357.38234375 66.75039063 356.7421875 67.39453125 C355.80632812 68.32845703 355.80632812 68.32845703 354.8515625 69.28125 C354.30322754 69.82845703 353.75489258 70.37566406 353.18994141 70.93945312 C351.27419413 72.74200686 349.31705144 74.45668467 347.32373047 76.171875 C342.66115181 80.23327465 338.31642646 84.57521244 333.96875 88.96875 C333.13339722 89.8078894 332.29804443 90.64702881 331.43737793 91.51159668 C328.78912914 94.171969 326.14415594 96.83556013 323.5 99.5 C320.01337399 103.01337273 316.52335074 106.52331971 313.03125 110.03125 C312.24455933 110.82623901 311.45786865 111.62122803 310.64733887 112.44030762 C307.19428824 115.90847813 303.72426031 119.29361377 300.01367188 122.48632812 C295.36077035 126.49188442 291.06714626 130.82604664 286.75 135.1875 C285.89245117 136.04883545 285.03490234 136.9101709 284.15136719 137.79760742 C281.43179111 140.5293112 278.715488 143.26423275 276 146 C272.41961974 149.60711851 268.83584819 153.21081802 265.25 156.8125 C264.44143555 157.62936279 263.63287109 158.44622559 262.79980469 159.2878418 C258.61239335 163.49311454 254.34113462 167.50611759 249.84255981 171.37561035 C247.01251902 173.87055729 244.39742325 176.55374889 241.77734375 179.265625 C240.65083379 180.41449721 239.52386728 181.5629219 238.39648438 182.7109375 C236.6585507 184.48603701 234.92395961 186.26400193 233.19702148 188.04980469 C231.50384279 189.79769454 229.79802918 191.53241449 228.08984375 193.265625 C227.58235092 193.79690002 227.07485809 194.32817505 226.55198669 194.87554932 C222.14675463 199.31224637 217.88476541 201.63284804 211.5625 202.4375 C203.98501449 201.5069316 199.33540994 197.79837907 194.25 192.29296875 C192.37180819 190.37890869 190.47346921 188.66853445 188.4375 186.9309082 C183.65933096 182.76689702 179.20697499 178.31521716 174.75 173.8125 C173.46367676 172.52049683 173.46367676 172.52049683 172.15136719 171.20239258 C168.51505061 167.54986017 164.88475629 163.89136365 161.25390625 160.23339844 C158.58802403 157.54934844 155.9190819 154.86836759 153.25 152.1875 C152.44143555 151.37063721 151.63287109 150.55377441 150.79980469 149.7121582 C147.29147295 146.18886167 143.7697835 142.74371292 140 139.5 C135.35100902 135.49977238 131.062605 131.16936549 126.75 126.8125 C125.46367676 125.52049683 125.46367676 125.52049683 124.15136719 124.20239258 C120.51505061 120.54986017 116.88475629 116.89136365 113.25390625 113.23339844 C110.58802403 110.54934844 107.9190819 107.86836759 105.25 105.1875 C104.44143555 104.37063721 103.63287109 103.55377441 102.79980469 102.7121582 C98.66750515 98.56223233 94.4531489 94.60886321 90.01489258 90.79003906 C86.16859626 87.3729732 82.58630781 83.68696731 78.96875 80.03125 C78.13339722 79.1921106 77.29804443 78.35297119 76.43737793 77.48840332 C72.89663871 73.9314548 69.36192676 70.3685388 65.82666016 66.80615234 C63.2302794 64.19159836 60.63083434 61.58011816 58.03125 58.96875 C57.24455933 58.17376099 56.45786865 57.37877197 55.64733887 56.55969238 C52.1984147 53.09566639 48.73286276 49.71372549 45.02685547 46.5246582 C40.30143485 42.45666014 35.93241151 38.05747372 31.5390625 33.63671875 C30.66728363 32.76352493 29.79550476 31.89033112 28.89730835 30.99067688 C26.1374959 28.22530946 23.38119581 25.4564716 20.625 22.6875 C18.75153443 20.80901304 16.87783873 18.93075556 15.00390625 17.05273438 C10.90222302 12.94125571 6.80274403 8.8275941 2.70523071 4.71195984 C1.47146849 3.47332899 0.23619893 2.23619893 -1 1 C-0.67 0.67 -0.34 0.34 0 0 Z " fill="#2687C8" transform="translate(121,389)"/>
<path d="M0 0 C6.27 0 12.54 0 19 0 C19 0.66 19 1.32 19 2 C21.31 2.33 23.62 2.66 26 3 C26 3.66 26 4.32 26 5 C28.31 5 30.62 5 33 5 C33 5.66 33 6.32 33 7 C39.27 7 45.54 7 52 7 C52 7.66 52 8.32 52 9 C55.3 9.33 58.6 9.66 62 10 C62 10.66 62 11.32 62 12 C61.01 12 60.02 12 59 12 C59 12.66 59 13.32 59 14 C91.34 14 123.68 14 157 14 C157 13.34 157 12.68 157 12 C157.99 12.495 157.99 12.495 159 13 C159 16 159 16 157.171875 18.19140625 C156.37265625 18.97386719 155.5734375 19.75632812 154.75 20.5625 C153.96109375 21.34753906 153.1721875 22.13257813 152.359375 22.94140625 C150.2732387 24.76159471 148.52910601 25.92687015 146 27 C146.33 25.02 146.66 23.04 147 21 C144.87465341 21.14069196 142.74972471 21.28770921 140.625 21.4375 C138.84996094 21.55931641 138.84996094 21.55931641 137.0390625 21.68359375 C134.08481099 21.81084936 134.08481099 21.81084936 132 23 C130.18530273 23.03759766 130.18530273 23.03759766 127.93359375 22.9140625 C127.07064697 22.87079834 126.2077002 22.82753418 125.31860352 22.78295898 C124.36783936 22.73083252 123.4170752 22.67870605 122.4375 22.625 C111.98156437 22.10651679 101.52634245 21.74277616 91.0625 21.4375 C90.31378632 21.41544495 89.56507263 21.39338989 88.79367065 21.3706665 C84.52917139 21.24506619 80.26461743 21.12153359 76 21 C76 20.34 76 19.68 76 19 C72.04 19 68.08 19 64 19 C64 18.34 64 17.68 64 17 C61.03 17 58.06 17 55 17 C54.505 16.01 54.505 16.01 54 15 C51.67843403 14.59270772 49.3431213 14.25561323 47 14 C47 13.34 47 12.68 47 12 C45.71802734 12.01740234 45.71802734 12.01740234 44.41015625 12.03515625 C43.30542969 12.04417969 42.20070313 12.05320312 41.0625 12.0625 C39.96035156 12.07410156 38.85820313 12.08570313 37.72265625 12.09765625 C35 12 35 12 34 11 C31.98688551 10.60430892 29.96402792 10.25747809 27.9375 9.9375 C26.28041016 9.67259766 26.28041016 9.67259766 24.58984375 9.40234375 C23.73519531 9.26957031 22.88054688 9.13679688 22 9 C22 8.34 22 7.68 22 7 C18.7 7 15.4 7 12 7 C12 6.34 12 5.68 12 5 C9.69 5 7.38 5 5 5 C4.67 4.34 4.34 3.68 4 3 C2.68 3 1.36 3 0 3 C0 2.01 0 1.02 0 0 Z " fill="#9AA084" transform="translate(634,460)"/>
<path d="M0 0 C1.15796082 0.00182281 2.31592163 0.00364563 3.50897217 0.00552368 C20.08140597 0.04953753 36.26767771 0.43274962 52.625 3.3125 C54.15326416 3.56193359 54.15326416 3.56193359 55.71240234 3.81640625 C128.09427722 15.72385863 190.08484401 50.01457406 242.625 100.3125 C243.24955078 100.90836914 243.87410156 101.50423828 244.51757812 102.11816406 C246.33447749 103.86022763 248.13826284 105.61471722 249.9375 107.375 C250.482854 107.89892334 251.02820801 108.42284668 251.59008789 108.96264648 C255.27945221 112.62007849 257.4048509 115.54302436 257.8203125 120.76953125 C257.78550781 121.93548828 257.78550781 121.93548828 257.75 123.125 C257.73195313 123.91519531 257.71390625 124.70539063 257.6953125 125.51953125 C257.66050781 126.40705078 257.66050781 126.40705078 257.625 127.3125 C256.14 127.8075 256.14 127.8075 254.625 128.3125 C254.63402344 127.61125 254.64304687 126.91 254.65234375 126.1875 C254.60787109 124.764375 254.60787109 124.764375 254.5625 123.3125 C254.55089844 122.384375 254.53929687 121.45625 254.52734375 120.5 C253.1643178 115.68515508 250.06559399 112.8441062 246.625 109.3125 C245.98312744 108.64460449 245.34125488 107.97670898 244.67993164 107.28857422 C242.70159851 105.25570552 240.69908041 103.24994156 238.6875 101.25 C238.02298828 100.58162109 237.35847656 99.91324219 236.67382812 99.22460938 C232.15575395 94.71529965 227.46716549 90.46955532 222.625 86.3125 C221.63757813 85.44367188 220.65015625 84.57484375 219.6328125 83.6796875 C210.70838907 75.96453554 201.28544745 69.07437865 191.625 62.3125 C190.99368164 61.86519531 190.36236328 61.41789062 189.71191406 60.95703125 C143.18619054 28.10345136 86.12728776 9.08577775 29.625 4.3125 C28.41585937 4.20164062 27.20671875 4.09078125 25.9609375 3.9765625 C3.15854604 2.20037622 -19.63302308 3.34856263 -42.375 5.3125 C-42.045 4.3225 -41.715 3.3325 -41.375 2.3125 C-27.59239559 0.05840808 -13.93763211 -0.04527058 0 0 Z " fill="#AB4DD2" transform="translate(499.375,99.6875)"/>
<path d="M0 0 C-0.33 0.66 -0.66 1.32 -1 2 C-3.29956055 2.55908203 -3.29956055 2.55908203 -6.38671875 3.0078125 C-7.537771 3.18546143 -8.68882324 3.36311035 -9.87475586 3.54614258 C-11.13296143 3.73716553 -12.39116699 3.92818848 -13.6875 4.125 C-68.16338985 12.99269566 -119.14298985 35.63313047 -163 69 C-163.89074219 69.67546875 -164.78148437 70.3509375 -165.69921875 71.046875 C-177.27198276 80.06654937 -187.69267194 90.52364656 -198.03417969 100.90380859 C-199.78723461 102.66235117 -201.5457442 104.41531777 -203.3046875 106.16796875 C-204.42740509 107.29134519 -205.54981351 108.41503073 -206.671875 109.5390625 C-207.19465027 110.05981354 -207.71742554 110.58056458 -208.25604248 111.11709595 C-211.59953946 114.48261832 -212.90459424 115.87421199 -213.3125 120.6875 C-213.18836538 126.42872601 -210.92441729 130.12584734 -206.90625 134.0390625 C-205.34672571 135.42703912 -203.77105066 136.79708321 -202.1796875 138.1484375 C-198.95659743 140.88633121 -195.96089874 143.79369389 -193.32519531 147.10253906 C-190.07688757 149.75330007 -187.76522858 149.54340907 -183.609375 149.609375 C-182.90476135 149.62591125 -182.20014771 149.64244751 -181.47418213 149.65948486 C-179.23269898 149.70791139 -176.99189387 149.72932187 -174.75 149.75 C-173.22652849 149.77816448 -171.70308848 149.80809259 -170.1796875 149.83984375 C-166.45327244 149.91366593 -162.7269862 149.96327469 -159 150 C-159.33 150.66 -159.66 151.32 -160 152 C-161.890625 152.34375 -161.890625 152.34375 -164.25 152.5 C-167.01467422 152.73908346 -168.92869134 152.96969382 -171.5 154.0625 C-174.71485313 155.26806992 -177.42214241 155.01853061 -180.81640625 154.77734375 C-183.61044448 155.06224568 -184.83873567 156.2764816 -187 158 C-194.66666667 150.33333333 -202.33333333 142.66666667 -210 135 C-210.91177002 134.11014404 -211.82354004 133.22028809 -212.76293945 132.3034668 C-216.06216442 128.90630565 -216.84730473 126.34880826 -217.375 121.6875 C-216.35152674 111.62334625 -209.11566931 105.59931659 -202.25 98.9375 C-201.27516923 97.97418937 -200.30120464 97.01000137 -199.328125 96.04492188 C-194.04841032 90.83249598 -188.63719822 85.82224701 -183 81 C-181.93990859 80.0628894 -180.88124963 79.12415518 -179.82421875 78.18359375 C-151.57406558 53.31951228 -118.87716984 33.99373715 -84 20 C-82.68346436 19.46898682 -82.68346436 19.46898682 -81.34033203 18.92724609 C-18.34284871 -6.1142829 -18.34284871 -6.1142829 0 0 Z " fill="#35636D" transform="translate(458,103)"/>
<path d="M0 0 C0.99 0.495 0.99 0.495 2 1 C2 1.99 2 2.98 2 4 C-2.47611282 6.98407521 -5.83543004 7.12674757 -11.16699219 7.14526367 C-13.04109772 7.15483345 -13.04109772 7.15483345 -14.95306396 7.16459656 C-16.31766725 7.16612711 -17.68227105 7.16724007 -19.046875 7.16796875 C-20.46014438 7.17118713 -21.87341343 7.17455163 -23.28668213 7.17805481 C-26.25574512 7.18404388 -29.22477905 7.18589537 -32.19384766 7.18530273 C-35.9520792 7.18520212 -39.71011751 7.19875013 -43.46830368 7.21607494 C-46.39417326 7.22734689 -49.31999872 7.22921722 -52.24588776 7.22869301 C-53.62821354 7.22985443 -55.0105412 7.23416946 -56.39284515 7.24202538 C-81.41137566 7.37069444 -81.41137566 7.37069444 -91 3 C-91 2.67 -91 2.34 -91 2 C-60.97 2 -30.94 2 0 2 C0 1.34 0 0.68 0 0 Z " fill="#CC828D" transform="translate(791,472)"/>
<path d="M0 0 C1.15796082 0.00182281 2.31592163 0.00364563 3.50897217 0.00552368 C20.07767007 0.04952761 36.27274494 0.41874136 52.625 3.3125 C53.68638184 3.48942383 54.74776367 3.66634766 55.84130859 3.84863281 C70.74236806 6.35778315 85.1916663 9.853795 99.625 14.3125 C99.625 14.9725 99.625 15.6325 99.625 16.3125 C92.59191071 15.71069958 86.07327657 14.2655391 79.25 12.5 C39.19911757 2.56480492 -1.45791833 1.77900834 -42.375 5.3125 C-42.045 4.3225 -41.715 3.3325 -41.375 2.3125 C-27.59239559 0.05840808 -13.93763211 -0.04527058 0 0 Z " fill="#B2357A" transform="translate(499.375,99.6875)"/>
<path d="M0 0 C1.89551022 -0.05441656 3.7914792 -0.09298035 5.6875 -0.125 C6.74324219 -0.14820313 7.79898438 -0.17140625 8.88671875 -0.1953125 C12 0 12 0 14.23614502 0.9427948 C24.69010035 4.94154872 37.63956305 4.29299003 48.640625 4.23046875 C50.06549029 4.22927159 51.49035639 4.22882492 52.91522217 4.2290802 C55.86296719 4.22753607 58.81058716 4.21939918 61.75830078 4.20581055 C65.53077574 4.18863442 69.30311685 4.18500272 73.07562637 4.18575573 C76.00098947 4.18548401 78.92632351 4.1800056 81.85167694 4.17275429 C83.24391206 4.16958381 84.63615044 4.16760402 86.02838898 4.16686058 C87.9632741 4.16469039 89.8981467 4.15514369 91.83300781 4.14526367 C92.93058411 4.14145187 94.0281604 4.13764008 95.15899658 4.13371277 C97.61407834 4.01816353 99.65944579 3.71166456 102 3 C100.61811547 6.21043882 99.07578097 8.04936365 96.375 10.25 C95.42753906 11.03117187 95.42753906 11.03117187 94.4609375 11.828125 C93.97882813 12.21484375 93.49671875 12.6015625 93 13 C93 11 93 9 93 7 C90.87465341 7.14069196 88.74972471 7.28770921 86.625 7.4375 C84.84996094 7.55931641 84.84996094 7.55931641 83.0390625 7.68359375 C80.08481099 7.81084936 80.08481099 7.81084936 78 9 C76.18530273 9.03759766 76.18530273 9.03759766 73.93359375 8.9140625 C73.07064697 8.87079834 72.2077002 8.82753418 71.31860352 8.78295898 C70.36783936 8.73083252 69.4170752 8.67870605 68.4375 8.625 C57.98156437 8.10651679 47.52634245 7.74277616 37.0625 7.4375 C36.31378632 7.41544495 35.56507263 7.39338989 34.79367065 7.3706665 C30.52917139 7.24506619 26.26461743 7.12153359 22 7 C22 6.34 22 5.68 22 5 C18.04 5 14.08 5 10 5 C10 4.34 10 3.68 10 3 C7.03 3 4.06 3 1 3 C0.67 2.01 0.34 1.02 0 0 Z " fill="#AFA969" transform="translate(688,474)"/>
<path d="M0 0 C2.97922593 -0.02683987 5.95821295 -0.04676037 8.9375 -0.0625 C9.78763672 -0.07087891 10.63777344 -0.07925781 11.51367188 -0.08789062 C12.32255859 -0.09111328 13.13144531 -0.09433594 13.96484375 -0.09765625 C14.7137085 -0.10289307 15.46257324 -0.10812988 16.23413086 -0.11352539 C18 0 18 0 19 1 C22.00908758 1.23371741 24.99741225 1.40273642 28.01171875 1.52734375 C29.41269051 1.58933205 29.41269051 1.58933205 30.84196472 1.65257263 C42.16113213 2.12841828 53.48597777 2.34726709 64.8125 2.5625 C66.98112508 2.60585626 69.14974492 2.64947483 71.31835938 2.69335938 C76.54551791 2.79858125 81.7727332 2.90030784 87 3 C86.67 3.66 86.34 4.32 86 5 C77.80139852 5.04675404 69.60285461 5.08208446 61.40415192 5.10362434 C57.59539514 5.11397282 53.78673089 5.12796413 49.97802734 5.15087891 C46.28863136 5.17293186 42.59932324 5.18463538 38.90986633 5.18975449 C37.51636882 5.19339304 36.12287501 5.20049381 34.72941589 5.21146011 C9.65815905 5.40055609 9.65815905 5.40055609 0 1 C0 0.67 0 0.34 0 0 Z " fill="#C49080" transform="translate(700,474)"/>
<path d="M0 0 C0.66 0.99 1.32 1.98 2 3 C1.28082397 3.66418945 1.28082397 3.66418945 0.54711914 4.34179688 C-1.63299187 6.37561479 -3.7849433 8.43705696 -5.9375 10.5 C-6.69224609 11.19609375 -7.44699219 11.8921875 -8.22460938 12.609375 C-12.94701737 17.12485828 -12.94701737 17.12485828 -15.19140625 23.09375 C-14.77177941 31.65756303 -10.768508 35.79213635 -4.8125 41.4375 C-4.15830078 42.07365234 -3.50410156 42.70980469 -2.83007812 43.36523438 C-1.2288319 44.91972888 0.38099948 46.46404153 2 48 C1.67 48.66 1.34 49.32 1 50 C-1.8623948 48.69947546 -3.9390298 47.31677165 -6.1640625 45.1015625 C-6.72867188 44.53953125 -7.29328125 43.9775 -7.875 43.3984375 C-8.4525 42.81320312 -9.03 42.22796875 -9.625 41.625 C-10.50285156 40.75875 -10.50285156 40.75875 -11.3984375 39.875 C-11.96046875 39.31039062 -12.5225 38.74578125 -13.1015625 38.1640625 C-13.61025879 37.65311035 -14.11895508 37.1421582 -14.64306641 36.61572266 C-17.71390606 32.95922449 -18.31493662 29.84598182 -18.375 25.125 C-18.40335937 24.11695313 -18.43171875 23.10890625 -18.4609375 22.0703125 C-17.47479357 15.50159109 -12.43619499 11.1432659 -7.875 6.6875 C-7.33746094 6.15060547 -6.79992187 5.61371094 -6.24609375 5.06054688 C-2.28212691 1.14106346 -2.28212691 1.14106346 0 0 Z " fill="#5DA8E1" transform="translate(118,338)"/>
<path d="M0 0 C3.96 0 7.92 0 12 0 C12 0.66 12 1.32 12 2 C14.31 2.33 16.62 2.66 19 3 C19 3.66 19 4.32 19 5 C21.31 5 23.62 5 26 5 C26 5.66 26 6.32 26 7 C32.27 7 38.54 7 45 7 C45 7.66 45 8.32 45 9 C48.3 9.33 51.6 9.66 55 10 C55 10.66 55 11.32 55 12 C53.20841511 12.02696365 51.41671527 12.04637917 49.625 12.0625 C48.62726562 12.07410156 47.62953125 12.08570313 46.6015625 12.09765625 C44 12 44 12 42 11 C39.65046516 10.65439475 37.29508692 10.34805357 34.9375 10.0625 C19.05700267 8.05700267 19.05700267 8.05700267 17 6 C15.64836973 5.8669073 14.29322627 5.76889008 12.9375 5.6875 C7.88658909 5.20183549 4.3960321 3.47776355 0 1 C0 0.67 0 0.34 0 0 Z " fill="#AD879A" transform="translate(641,460)"/>
<path d="M0 0 C0.33 0 0.66 0 1 0 C1.91370558 8.40947547 1.91370558 8.40947547 -0.0546875 11.8359375 C-1.05611487 12.94562728 -2.09023881 14.02634014 -3.1484375 15.08203125 C-5.41434487 17.42920534 -7.23169786 19.96941329 -9.125 22.625 C-13.89787061 29.31468612 -18.69256573 34.75673742 -25 40 C-25.78503906 40.66128906 -26.57007813 41.32257813 -27.37890625 42.00390625 C-28.16136719 42.64199219 -28.94382812 43.28007812 -29.75 43.9375 C-30.82507813 44.81728516 -30.82507813 44.81728516 -31.921875 45.71484375 C-34 47 -34 47 -38 47 C-38 46.34 -38 45.68 -38 45 C-36.68 45 -35.36 45 -34 45 C-33.773125 44.360625 -33.54625 43.72125 -33.3125 43.0625 C-32.879375 42.381875 -32.44625 41.70125 -32 41 C-30.33333333 40.66666667 -28.66666667 40.33333333 -27 40 C-25.8499169 38.03327085 -25.8499169 38.03327085 -25 36 C-23.515 35.505 -23.515 35.505 -22 35 C-22 34.34 -22 33.68 -22 33 C-21.34 33 -20.68 33 -20 33 C-19.731875 32.360625 -19.46375 31.72125 -19.1875 31.0625 C-18 29 -18 29 -15 28 C-15 27.34 -15 26.68 -15 26 C-14.34 26 -13.68 26 -13 26 C-13 25.01 -13 24.02 -13 23 C-12.34 23 -11.68 23 -11 23 C-10.85884766 22.20335937 -10.85884766 22.20335937 -10.71484375 21.390625 C-9.76554381 18.21591699 -8.22551277 15.61273301 -6.5625 12.75 C-5.94503906 11.67234375 -5.32757813 10.5946875 -4.69140625 9.484375 C-4.13324219 8.66453125 -3.57507813 7.8446875 -3 7 C-2.34 7 -1.68 7 -1 7 C-1.020625 6.030625 -1.04125 5.06125 -1.0625 4.0625 C-1 1 -1 1 0 0 Z " fill="#396C96" transform="translate(360,199)"/>
<path d="M0 0 C10.56 0 21.12 0 32 0 C31.67 0.66 31.34 1.32 31 2 C29.109375 2.34375 29.109375 2.34375 26.75 2.5 C23.98532578 2.73908346 22.07130866 2.96969382 19.5 4.0625 C16.84320668 5.05879749 15.24210343 5.03782728 12.4375 4.9375 C9.27470807 4.84788756 8.24686431 4.85549406 5.4375 6.5 C4.963125 6.995 4.48875 7.49 4 8 C2.35 6.02 0.7 4.04 -1 2 C-0.67 1.34 -0.34 0.68 0 0 Z " fill="#35719A" transform="translate(267,253)"/>
<path d="M0 0 C3.3 0 6.6 0 10 0 C10 0.66 10 1.32 10 2 C11.5778125 1.9071875 11.5778125 1.9071875 13.1875 1.8125 C17.16108064 2.007922 18.91244563 2.5673814 22 5 C22 5.66 22 6.32 22 7 C18.04 7 14.08 7 10 7 C10 6.34 10 5.68 10 5 C7.36 4.67 4.72 4.34 2 4 C2 3.34 2 2.68 2 2 C1.34 2 0.68 2 0 2 C0 1.34 0 0.68 0 0 Z " fill="#8685B4" transform="translate(617,453)"/>
<path d="M0 0 C0.66 0.99 1.32 1.98 2 3 C-0.59195068 5.67877946 -3.20047108 8.34080633 -5.8125 11 C-6.55048828 11.763125 -7.28847656 12.52625 -8.04882812 13.3125 C-8.76103516 14.034375 -9.47324219 14.75625 -10.20703125 15.5 C-10.8616333 16.1703125 -11.51623535 16.840625 -12.19067383 17.53125 C-14 19 -14 19 -17 19 C-15.51972032 13.81902114 -12.26342274 10.88280503 -8.5 7.25 C-7.60861328 6.36634766 -7.60861328 6.36634766 -6.69921875 5.46484375 C-2.31023126 1.15511563 -2.31023126 1.15511563 0 0 Z " fill="#68B4E9" transform="translate(118,338)"/>
<path d="M0 0 C2.93774463 -0.05390357 5.87450232 -0.0936255 8.8125 -0.125 C10.06256836 -0.15013672 10.06256836 -0.15013672 11.33789062 -0.17578125 C12.14033203 -0.18222656 12.94277344 -0.18867188 13.76953125 -0.1953125 C14.50792236 -0.20578613 15.24631348 -0.21625977 16.00708008 -0.22705078 C18 0 18 0 21 2 C23.57648542 2.3674728 26.12536129 2.50369229 28.72265625 2.65625 C31 3 31 3 33 5 C26.11505242 5.23471412 19.39345211 4.95600456 12.5625 4.125 C11.88896484 4.04652832 11.21542969 3.96805664 10.52148438 3.88720703 C6.74040931 3.395214 3.46755268 2.59013013 0 1 C0 0.67 0 0.34 0 0 Z " fill="#B5997D" transform="translate(700,474)"/>
<path d="M0 0 C5.38623559 -0.44885297 8.19682212 0.44380001 12.87109375 3.05078125 C15.94069745 4.41943024 18.88630124 4.57811978 22.21484375 4.7265625 C22.80394531 4.81679688 23.39304687 4.90703125 24 5 C24.33 5.66 24.66 6.32 25 7 C20.71 7 16.42 7 12 7 C12 6.34 12 5.68 12 5 C9.69 5 7.38 5 5 5 C4.67 4.34 4.34 3.68 4 3 C2.68 3 1.36 3 0 3 C0 2.01 0 1.02 0 0 Z " fill="#89A389" transform="translate(634,460)"/>
<path d="M0 0 C3.96 0 7.92 0 12 0 C12 0.66 12 1.32 12 2 C14.31 2.33 16.62 2.66 19 3 C19 3.66 19 4.32 19 5 C11.42228293 5.50146657 6.54216759 4.94998798 0 1 C0 0.67 0 0.34 0 0 Z " fill="#918DA2" transform="translate(641,460)"/>
<path d="M0 0 C0.99 0 1.98 0 3 0 C1.61811547 3.21043882 0.07578097 5.04936365 -2.625 7.25 C-3.25664063 7.77078125 -3.88828125 8.2915625 -4.5390625 8.828125 C-5.02117188 9.21484375 -5.50328125 9.6015625 -6 10 C-6 8 -6 6 -6 4 C-8.31 4 -10.62 4 -13 4 C-12.67 3.34 -12.34 2.68 -12 2 C-9.53125 1.62109375 -9.53125 1.62109375 -6.5 1.4375 C-2.93669646 1.50678967 -2.93669646 1.50678967 0 0 Z " fill="#A89C65" transform="translate(787,477)"/>
<path d="M0 0 C0.33 0.66 0.66 1.32 1 2 C1.66 2.33 2.32 2.66 3 3 C0.34345343 6.73884332 -1.58110387 8.64978174 -6 10 C-6.33 9.01 -6.66 8.02 -7 7 C-4.69 4.69 -2.38 2.38 0 0 Z " fill="#708AE4" transform="translate(125,330)"/>
<path d="M0 0 C6.27 0 12.54 0 19 0 C18.67 0.66 18.34 1.32 18 2 C14.98046875 2.37890625 14.98046875 2.37890625 11.1875 2.5625 C5.51935485 2.81482261 5.51935485 2.81482261 0 4 C0 2.66666667 0 1.33333333 0 0 Z " fill="#2E7492" transform="translate(267,253)"/>
<path d="M0 0 C5.91260345 -0.25706972 11.23918159 0.7017874 17 2 C17 2.66 17 3.32 17 4 C13.04 4 9.08 4 5 4 C5 3.34 5 2.68 5 2 C3.35 2 1.7 2 0 2 C0 1.34 0 0.68 0 0 Z " fill="#A59B83" transform="translate(676,470)"/>
<path d="M0 0 C0.99 0 1.98 0 3 0 C3 0.66 3 1.32 3 2 C3.61488281 2.03738281 4.22976563 2.07476562 4.86328125 2.11328125 C5.67152344 2.17902344 6.47976563 2.24476563 7.3125 2.3125 C8.11300781 2.37050781 8.91351562 2.42851562 9.73828125 2.48828125 C12.37449551 3.08473042 13.33826294 3.90803975 15 6 C15 6.33 15 6.66 15 7 C13.35 7 11.7 7 10 7 C10 6.34 10 5.68 10 5 C7.36 4.67 4.72 4.34 2 4 C2 3.34 2 2.68 2 2 C1.34 2 0.68 2 0 2 C0 1.34 0 0.68 0 0 Z " fill="#779D9C" transform="translate(617,453)"/>
<path d="M0 0 C2.97 0 5.94 0 9 0 C9 0.66 9 1.32 9 2 C11.97 2.33 14.94 2.66 18 3 C18 3.66 18 4.32 18 5 C6.07509254 3.699101 6.07509254 3.699101 1 2 C0.67 1.34 0.34 0.68 0 0 Z " fill="#9F8F98" transform="translate(658,465)"/>
<path d="M0 0 C-3.33844297 1.72306734 -5.88080095 2.07723445 -9.5625 1.9375 C-12.72529193 1.84788756 -13.75313569 1.85549406 -16.5625 3.5 C-17.036875 3.995 -17.51125 4.49 -18 5 C-18.99 3.68 -19.98 2.36 -21 1 C-17.4995014 -0.16683287 -14.15088178 -0.38856194 -10.5 -0.625 C-9.82324219 -0.6765625 -9.14648438 -0.728125 -8.44921875 -0.78125 C-5.27887904 -0.99385661 -3.04666066 -1.01555355 0 0 Z " fill="#4367A6" transform="translate(289,256)"/>
<path d="M0 0 C-2.05673453 1.01180498 -4.12065348 2.00901477 -6.1875 3 C-7.33605469 3.556875 -8.48460937 4.11375 -9.66796875 4.6875 C-12.79090519 5.91763675 -14.70286482 6.29804612 -18 6 C-16.44000409 2.88000818 -13.87220503 2.54883154 -10.6875 1.3125 C-9.53636719 0.85488281 -8.38523437 0.39726562 -7.19921875 -0.07421875 C-4.13717158 -0.96030566 -2.88822927 -1.176686 0 0 Z " fill="#386D9C" transform="translate(322,247)"/>
<path d="M0 0 C1.65 0 3.3 0 5 0 C5 0.66 5 1.32 5 2 C7.31 2.33 9.62 2.66 12 3 C12 3.66 12 4.32 12 5 C6.72209903 5.50265724 4.13774748 4.25108731 0 1 C0 0.67 0 0.34 0 0 Z " fill="#9A83AC" transform="translate(648,460)"/>
<path d="M0 0 C1.43836751 0.11458693 2.87570966 0.24209116 4.3125 0.375 C5.51326172 0.47941406 5.51326172 0.47941406 6.73828125 0.5859375 C9 1 9 1 12 3 C9.03 3 6.06 3 3 3 C3 2.34 3 1.68 3 1 C2.01 0.67 1.02 0.34 0 0 Z " fill="#A6AE68" transform="translate(695,476)"/>
<path d="M0 0 C0.70125 0.144375 1.4025 0.28875 2.125 0.4375 C5.07556141 1.01478375 8.03270151 1.51695141 11 2 C11 2.33 11 2.66 11 3 C9.741875 3.020625 8.48375 3.04125 7.1875 3.0625 C6.47980469 3.07410156 5.77210938 3.08570313 5.04296875 3.09765625 C3 3 3 3 0 2 C0 1.34 0 0.68 0 0 Z " fill="#92A77E" transform="translate(656,467)"/>
<path d="M0 0 C2.31 0 4.62 0 7 0 C7.33 0.66 7.66 1.32 8 2 C5.36 2.33 2.72 2.66 0 3 C0 2.01 0 1.02 0 0 Z " fill="#82A092" transform="translate(634,460)"/>
</svg>
